<svg width="438" height="447" viewBox="0 0 438 447" fill="none" xmlns="http://www.w3.org/2000/svg">
<path d="M21.742 308.753L106.107 358.89L28.5225 400.241L-56.954 348.564L21.742 308.753Z" fill="#E9E9E9"/>
<path d="M28.5036 400.044L106.107 358.89L103.19 459.984L24.0157 499.841L28.5036 400.044Z" fill="url(#paint0_linear_549_4139)"/>
<path d="M-56.9086 349.043L28.5223 400.242L24.1254 500.994L-52.8147 452.846L-56.9086 349.043Z" fill="#0E0E0E"/>
<path d="M-4.94275 322.196L77.8292 373.91L58.0496 384.204L-23.5484 331.662L-4.94275 322.196Z" fill="url(#paint1_linear_549_4139)"/>
<path d="M57.8722 384.222L77.8292 373.91L76.2211 473.566L58.1307 482.805L57.8722 384.222Z" fill="url(#paint2_linear_549_4139)"/>
<path d="M21.742 308.753L106.107 358.89L28.5225 400.241L-56.954 348.564L21.742 308.753Z" fill="#E9E9E9"/>
<path d="M28.5036 400.044L106.107 358.89L103.19 459.984L24.0157 499.841L28.5036 400.044Z" fill="url(#paint3_linear_549_4139)"/>
<path d="M-56.9086 349.043L28.5223 400.242L24.1254 500.994L-52.8147 452.846L-56.9086 349.043Z" fill="#0E0E0E"/>
<path d="M-4.94275 322.196L77.8292 373.91L58.0496 384.204L-23.5484 331.662L-4.94275 322.196Z" fill="url(#paint4_linear_549_4139)"/>
<path d="M57.8722 384.222L77.8292 373.91L76.2211 473.566L58.1307 482.805L57.8722 384.222Z" fill="url(#paint5_linear_549_4139)"/>
<path d="M189.814 181.012L271.191 235.865L191.38 272.737L108.981 216.283L189.814 181.012Z" fill="#E9E9E9"/>
<path d="M191.373 272.539L271.191 235.865L262.529 336.63L181.217 371.919L191.373 272.539Z" fill="url(#paint6_linear_549_4139)"/>
<path d="M108.999 216.763L191.38 272.737L181.261 373.077L107.183 320.631L108.999 216.763Z" fill="#0E0E0E"/>
<path d="M162.408 192.915L242.105 249.253L221.772 258.405L143.294 201.308L162.408 192.915Z" fill="url(#paint7_linear_549_4139)"/>
<path d="M221.594 258.412L242.105 249.253L234.832 348.656L216.245 356.851L221.594 258.412Z" fill="url(#paint8_linear_549_4139)"/>
<path d="M189.814 181.012L271.191 235.865L191.38 272.737L108.981 216.283L189.814 181.012Z" fill="#E9E9E9"/>
<path d="M191.373 272.539L271.191 235.865L262.529 336.63L181.217 371.919L191.373 272.539Z" fill="url(#paint9_linear_549_4139)"/>
<path d="M108.999 216.763L191.38 272.737L181.261 373.077L107.183 320.631L108.999 216.763Z" fill="#0E0E0E"/>
<path d="M162.408 192.915L242.105 249.253L221.772 258.405L143.294 201.308L162.408 192.915Z" fill="url(#paint10_linear_549_4139)"/>
<path d="M221.594 258.412L242.105 249.253L234.832 348.656L216.245 356.851L221.594 258.412Z" fill="url(#paint11_linear_549_4139)"/>
<path d="M379.477 305.044L437.522 348.038L377.631 372.542L318.887 328.337L379.477 305.044Z" fill="#E9E9E9"/>
<path d="M377.632 372.396L437.522 348.038L427.859 421.848L366.916 445.14L377.632 372.396Z" fill="url(#paint12_linear_549_4139)"/>
<path d="M318.885 328.691L377.631 372.543L366.91 445.993L314.155 405.007L318.885 328.691Z" fill="#0E0E0E"/>
<path d="M358.936 312.901L415.697 356.932L400.447 362.997L344.607 318.448L358.936 312.901Z" fill="url(#paint13_linear_549_4139)"/>
<path d="M400.316 362.997L415.697 356.932L407.1 429.787L393.165 435.205L400.316 362.997Z" fill="url(#paint14_linear_549_4139)"/>
<path d="M379.477 305.044L437.522 348.038L377.631 372.542L318.887 328.337L379.477 305.044Z" fill="#E9E9E9"/>
<path d="M377.632 372.396L437.522 348.038L427.859 421.848L366.916 445.14L377.632 372.396Z" fill="url(#paint15_linear_549_4139)"/>
<path d="M318.885 328.691L377.631 372.543L366.91 445.993L314.155 405.007L318.885 328.691Z" fill="#0E0E0E"/>
<path d="M358.936 312.901L415.697 356.932L400.447 362.997L344.607 318.448L358.936 312.901Z" fill="url(#paint16_linear_549_4139)"/>
<path d="M400.316 362.997L415.697 356.932L407.1 429.787L393.165 435.205L400.316 362.997Z" fill="url(#paint17_linear_549_4139)"/>
<path d="M265.647 382.085L305 410.846L264.693 427.64L224.862 398.065L265.647 382.085Z" fill="#E9E9E9"/>
<path d="M264.693 427.541L305 410.846L298.799 460.693L257.776 476.673L264.693 427.541Z" fill="url(#paint18_linear_549_4139)"/>
<path d="M224.862 398.304L264.693 427.64L257.776 477.249L222 449.821L224.862 398.304Z" fill="#0E0E0E"/>
<path d="M251.82 387.476L290.311 416.941L280.047 421.1L242.175 391.28L251.82 387.476Z" fill="url(#paint19_linear_549_4139)"/>
<path d="M279.958 421.1L290.311 416.941L284.825 466.14L275.446 469.856L279.958 421.1Z" fill="url(#paint20_linear_549_4139)"/>
<path d="M251.82 387.476L290.311 416.941L280.047 421.1L242.175 391.28L251.82 387.476Z" fill="url(#paint21_linear_549_4139)"/>
<path d="M279.958 421.1L290.311 416.941L284.825 466.14L275.446 469.856L279.958 421.1Z" fill="url(#paint22_linear_549_4139)"/>
<path d="M267.274 355.893L290.063 372.548L266.722 382.273L243.657 365.147L267.274 355.893Z" fill="#E9E9E9"/>
<path d="M266.722 382.216L290.063 372.548L286.472 401.413L262.717 410.667L266.722 382.216Z" fill="url(#paint23_linear_549_4139)"/>
<path d="M243.657 365.285L266.722 382.273L262.717 411L242 395.117L243.657 365.285Z" fill="#0E0E0E"/>
<path d="M259.268 359.015L281.557 376.077L275.613 378.486L253.683 361.218L259.268 359.015Z" fill="url(#paint24_linear_549_4139)"/>
<path d="M275.562 378.486L281.557 376.078L278.38 404.567L272.949 406.719L275.562 378.486Z" fill="url(#paint25_linear_549_4139)"/>
<path d="M259.268 359.015L281.557 376.077L275.613 378.486L253.683 361.218L259.268 359.015Z" fill="url(#paint26_linear_549_4139)"/>
<path d="M275.562 378.486L281.557 376.078L278.38 404.567L272.949 406.719L275.562 378.486Z" fill="url(#paint27_linear_549_4139)"/>
<path d="M82.549 70.8541L154.558 110.64L87.3829 143.618L14.4343 102.609L82.549 70.8541Z" fill="#E9E9E9"/>
<path d="M87.369 143.462L154.559 110.64L150.947 191.056L82.4211 222.847L87.369 143.462Z" fill="url(#paint28_linear_549_4139)"/>
<path d="M14.4683 102.989L87.3829 143.619L82.5029 223.765L16.8574 185.552L14.4683 102.989Z" fill="#0E0E0E"/>
<path d="M59.4532 81.577L130.075 122.62L112.952 130.83L43.3486 89.1278L59.4532 81.577Z" fill="url(#paint29_linear_549_4139)"/>
<path d="M112.799 130.844L130.075 122.62L127.606 201.89L111.947 209.259L112.799 130.844Z" fill="url(#paint30_linear_549_4139)"/>
<path d="M82.549 70.8541L154.558 110.64L87.3829 143.618L14.4343 102.609L82.549 70.8541Z" fill="#E9E9E9"/>
<path d="M87.369 143.462L154.559 110.64L150.947 191.056L82.4211 222.847L87.369 143.462Z" fill="url(#paint31_linear_549_4139)"/>
<path d="M14.4683 102.989L87.3829 143.619L82.5029 223.765L16.8574 185.552L14.4683 102.989Z" fill="#0E0E0E"/>
<path d="M59.4532 81.577L130.075 122.62L112.952 130.83L43.3486 89.1278L59.4532 81.577Z" fill="url(#paint32_linear_549_4139)"/>
<path d="M112.799 130.844L130.075 122.62L127.606 201.89L111.947 209.259L112.799 130.844Z" fill="url(#paint33_linear_549_4139)"/>
<path d="M57.4845 21.5239L101.499 48.264L60.5755 69.567L15.9855 42.0131L57.4845 21.5239Z" fill="#E9E9E9"/>
<path d="M60.5667 69.4639L101.499 48.2644L99.4522 101.299L57.7021 121.809L60.5667 69.4639Z" fill="url(#paint34_linear_549_4139)"/>
<path d="M16.0069 42.2652L60.5754 69.568L57.7537 122.416L17.6252 96.7569L16.0069 42.2652Z" fill="#0E0E0E"/>
<path d="M43.4131 28.4425L86.5837 56.0022L76.1518 61.3032L33.6015 33.3152L43.4131 28.4425Z" fill="url(#paint35_linear_549_4139)"/>
<path d="M76.0586 61.3104L86.5837 56.0015L85.231 108.288L75.6909 113.044L76.0586 61.3104Z" fill="url(#paint36_linear_549_4139)"/>
<path d="M57.4845 21.5239L101.499 48.264L60.5755 69.567L15.9855 42.0131L57.4845 21.5239Z" fill="#E9E9E9"/>
<path d="M60.5667 69.4639L101.499 48.2644L99.4522 101.299L57.7021 121.809L60.5667 69.4639Z" fill="url(#paint37_linear_549_4139)"/>
<path d="M16.0069 42.2652L60.5754 69.568L57.7537 122.416L17.6252 96.7569L16.0069 42.2652Z" fill="#0E0E0E"/>
<path d="M43.4131 28.4425L86.5837 56.0022L76.1518 61.3032L33.6015 33.3152L43.4131 28.4425Z" fill="url(#paint38_linear_549_4139)"/>
<path d="M76.0586 61.3104L86.5837 56.0015L85.231 108.288L75.6909 113.044L76.0586 61.3104Z" fill="url(#paint39_linear_549_4139)"/>
<defs>
<linearGradient id="paint0_linear_549_4139" x1="61.4967" y1="381.568" x2="90.5339" y2="443.808" gradientUnits="userSpaceOnUse">
<stop stop-color="#D2CDCE"/>
<stop offset="0.74" stop-color="#5E5C5D"/>
<stop offset="1" stop-color="#494748"/>
</linearGradient>
<linearGradient id="paint1_linear_549_4139" x1="45.8127" y1="370.336" x2="0.00333417" y2="407.985" gradientUnits="userSpaceOnUse">
<stop stop-color="#DBDBDB"/>
<stop offset="1" stop-color="#555555"/>
</linearGradient>
<linearGradient id="paint2_linear_549_4139" x1="46.8516" y1="364.332" x2="81.9648" y2="451.186" gradientUnits="userSpaceOnUse">
<stop stop-color="#D1D1D1"/>
<stop offset="0.375" stop-color="#D2D2D2"/>
<stop offset="1" stop-color="#737373"/>
</linearGradient>
<linearGradient id="paint3_linear_549_4139" x1="61.4967" y1="381.568" x2="90.5339" y2="443.808" gradientUnits="userSpaceOnUse">
<stop stop-color="#D2CDCE"/>
<stop offset="0.74" stop-color="#5E5C5D"/>
<stop offset="1" stop-color="#494748"/>
</linearGradient>
<linearGradient id="paint4_linear_549_4139" x1="45.8127" y1="370.336" x2="0.00333417" y2="407.985" gradientUnits="userSpaceOnUse">
<stop stop-color="#DBDBDB"/>
<stop offset="1" stop-color="#555555"/>
</linearGradient>
<linearGradient id="paint5_linear_549_4139" x1="46.8516" y1="364.332" x2="81.9648" y2="451.186" gradientUnits="userSpaceOnUse">
<stop stop-color="#D1D1D1"/>
<stop offset="0.375" stop-color="#D2D2D2"/>
<stop offset="1" stop-color="#737373"/>
</linearGradient>
<linearGradient id="paint6_linear_549_4139" x1="188.227" y1="207.615" x2="220.284" y2="303.541" gradientUnits="userSpaceOnUse">
<stop stop-color="#D2CDCE"/>
<stop offset="0.74" stop-color="#5E5C5D"/>
<stop offset="1" stop-color="#494748"/>
</linearGradient>
<linearGradient id="paint7_linear_549_4139" x1="220.329" y1="329.206" x2="116.548" y2="376.502" gradientUnits="userSpaceOnUse">
<stop stop-color="#DBDBDB"/>
<stop offset="1" stop-color="#555555"/>
</linearGradient>
<linearGradient id="paint8_linear_549_4139" x1="211.722" y1="237.928" x2="241.839" y2="326.638" gradientUnits="userSpaceOnUse">
<stop stop-color="#D1D1D1"/>
<stop offset="0.375" stop-color="#D2D2D2"/>
<stop offset="1" stop-color="#737373"/>
</linearGradient>
<linearGradient id="paint9_linear_549_4139" x1="188.227" y1="207.615" x2="220.284" y2="303.541" gradientUnits="userSpaceOnUse">
<stop stop-color="#D2CDCE"/>
<stop offset="0.74" stop-color="#5E5C5D"/>
<stop offset="1" stop-color="#494748"/>
</linearGradient>
<linearGradient id="paint10_linear_549_4139" x1="220.329" y1="329.206" x2="116.548" y2="376.502" gradientUnits="userSpaceOnUse">
<stop stop-color="#DBDBDB"/>
<stop offset="1" stop-color="#555555"/>
</linearGradient>
<linearGradient id="paint11_linear_549_4139" x1="211.722" y1="237.928" x2="241.839" y2="326.638" gradientUnits="userSpaceOnUse">
<stop stop-color="#D1D1D1"/>
<stop offset="0.375" stop-color="#D2D2D2"/>
<stop offset="1" stop-color="#737373"/>
</linearGradient>
<linearGradient id="paint12_linear_549_4139" x1="403.167" y1="361.323" x2="419.796" y2="409.061" gradientUnits="userSpaceOnUse">
<stop stop-color="#D2CDCE"/>
<stop offset="0.74" stop-color="#5E5C5D"/>
<stop offset="1" stop-color="#494748"/>
</linearGradient>
<linearGradient id="paint13_linear_549_4139" x1="392.519" y1="351.932" x2="356.171" y2="376.089" gradientUnits="userSpaceOnUse">
<stop stop-color="#DBDBDB"/>
<stop offset="1" stop-color="#555555"/>
</linearGradient>
<linearGradient id="paint14_linear_549_4139" x1="393.727" y1="347.612" x2="412.972" y2="413.826" gradientUnits="userSpaceOnUse">
<stop stop-color="#D1D1D1"/>
<stop offset="0.375" stop-color="#D2D2D2"/>
<stop offset="1" stop-color="#737373"/>
</linearGradient>
<linearGradient id="paint15_linear_549_4139" x1="403.167" y1="361.323" x2="419.796" y2="409.061" gradientUnits="userSpaceOnUse">
<stop stop-color="#D2CDCE"/>
<stop offset="0.74" stop-color="#5E5C5D"/>
<stop offset="1" stop-color="#494748"/>
</linearGradient>
<linearGradient id="paint16_linear_549_4139" x1="392.519" y1="351.932" x2="356.171" y2="376.089" gradientUnits="userSpaceOnUse">
<stop stop-color="#DBDBDB"/>
<stop offset="1" stop-color="#555555"/>
</linearGradient>
<linearGradient id="paint17_linear_549_4139" x1="393.727" y1="347.612" x2="412.972" y2="413.826" gradientUnits="userSpaceOnUse">
<stop stop-color="#D1D1D1"/>
<stop offset="0.375" stop-color="#D2D2D2"/>
<stop offset="1" stop-color="#737373"/>
</linearGradient>
<linearGradient id="paint18_linear_549_4139" x1="281.875" y1="419.958" x2="293.303" y2="452.1" gradientUnits="userSpaceOnUse">
<stop stop-color="#D2CDCE"/>
<stop offset="0.74" stop-color="#5E5C5D"/>
<stop offset="1" stop-color="#494748"/>
</linearGradient>
<linearGradient id="paint19_linear_549_4139" x1="274.649" y1="413.667" x2="250.227" y2="430.126" gradientUnits="userSpaceOnUse">
<stop stop-color="#DBDBDB"/>
<stop offset="1" stop-color="#555555"/>
</linearGradient>
<linearGradient id="paint20_linear_549_4139" x1="275.446" y1="410.747" x2="288.719" y2="455.344" gradientUnits="userSpaceOnUse">
<stop stop-color="#D1D1D1"/>
<stop offset="0.375" stop-color="#D2D2D2"/>
<stop offset="1" stop-color="#737373"/>
</linearGradient>
<linearGradient id="paint21_linear_549_4139" x1="274.649" y1="413.667" x2="250.227" y2="430.126" gradientUnits="userSpaceOnUse">
<stop stop-color="#DBDBDB"/>
<stop offset="1" stop-color="#555555"/>
</linearGradient>
<linearGradient id="paint22_linear_549_4139" x1="275.446" y1="410.747" x2="288.719" y2="455.344" gradientUnits="userSpaceOnUse">
<stop stop-color="#D1D1D1"/>
<stop offset="0.375" stop-color="#D2D2D2"/>
<stop offset="1" stop-color="#737373"/>
</linearGradient>
<linearGradient id="paint23_linear_549_4139" x1="276.672" y1="377.825" x2="283.289" y2="396.437" gradientUnits="userSpaceOnUse">
<stop stop-color="#D2CDCE"/>
<stop offset="0.74" stop-color="#5E5C5D"/>
<stop offset="1" stop-color="#494748"/>
</linearGradient>
<linearGradient id="paint24_linear_549_4139" x1="272.488" y1="374.182" x2="258.345" y2="383.712" gradientUnits="userSpaceOnUse">
<stop stop-color="#DBDBDB"/>
<stop offset="1" stop-color="#555555"/>
</linearGradient>
<linearGradient id="paint25_linear_549_4139" x1="272.949" y1="372.491" x2="280.635" y2="398.316" gradientUnits="userSpaceOnUse">
<stop stop-color="#D1D1D1"/>
<stop offset="0.375" stop-color="#D2D2D2"/>
<stop offset="1" stop-color="#737373"/>
</linearGradient>
<linearGradient id="paint26_linear_549_4139" x1="272.488" y1="374.182" x2="258.345" y2="383.712" gradientUnits="userSpaceOnUse">
<stop stop-color="#DBDBDB"/>
<stop offset="1" stop-color="#555555"/>
</linearGradient>
<linearGradient id="paint27_linear_549_4139" x1="272.949" y1="372.491" x2="280.635" y2="398.316" gradientUnits="userSpaceOnUse">
<stop stop-color="#D1D1D1"/>
<stop offset="0.375" stop-color="#D2D2D2"/>
<stop offset="1" stop-color="#737373"/>
</linearGradient>
<linearGradient id="paint28_linear_549_4139" x1="115.945" y1="128.728" x2="137.701" y2="179.295" gradientUnits="userSpaceOnUse">
<stop stop-color="#D2CDCE"/>
<stop offset="0.74" stop-color="#5E5C5D"/>
<stop offset="1" stop-color="#494748"/>
</linearGradient>
<linearGradient id="paint29_linear_549_4139" x1="102.579" y1="119.813" x2="65.1853" y2="152.566" gradientUnits="userSpaceOnUse">
<stop stop-color="#DBDBDB"/>
<stop offset="1" stop-color="#555555"/>
</linearGradient>
<linearGradient id="paint30_linear_549_4139" x1="103.538" y1="115.035" x2="129.738" y2="185.221" gradientUnits="userSpaceOnUse">
<stop stop-color="#D1D1D1"/>
<stop offset="0.375" stop-color="#D2D2D2"/>
<stop offset="1" stop-color="#737373"/>
</linearGradient>
<linearGradient id="paint31_linear_549_4139" x1="115.945" y1="128.728" x2="137.701" y2="179.295" gradientUnits="userSpaceOnUse">
<stop stop-color="#D2CDCE"/>
<stop offset="0.74" stop-color="#5E5C5D"/>
<stop offset="1" stop-color="#494748"/>
</linearGradient>
<linearGradient id="paint32_linear_549_4139" x1="102.579" y1="119.813" x2="65.1853" y2="152.566" gradientUnits="userSpaceOnUse">
<stop stop-color="#DBDBDB"/>
<stop offset="1" stop-color="#555555"/>
</linearGradient>
<linearGradient id="paint33_linear_549_4139" x1="103.538" y1="115.035" x2="129.738" y2="185.221" gradientUnits="userSpaceOnUse">
<stop stop-color="#D1D1D1"/>
<stop offset="0.375" stop-color="#D2D2D2"/>
<stop offset="1" stop-color="#737373"/>
</linearGradient>
<linearGradient id="paint34_linear_549_4139" x1="77.9742" y1="59.9366" x2="92.8936" y2="92.7458" gradientUnits="userSpaceOnUse">
<stop stop-color="#D2CDCE"/>
<stop offset="0.74" stop-color="#5E5C5D"/>
<stop offset="1" stop-color="#494748"/>
</linearGradient>
<linearGradient id="paint35_linear_549_4139" x1="69.8012" y1="53.9635" x2="45.5705" y2="73.4856" gradientUnits="userSpaceOnUse">
<stop stop-color="#DBDBDB"/>
<stop offset="1" stop-color="#555555"/>
</linearGradient>
<linearGradient id="paint36_linear_549_4139" x1="70.3771" y1="50.8172" x2="88.3593" y2="96.5732" gradientUnits="userSpaceOnUse">
<stop stop-color="#D1D1D1"/>
<stop offset="0.375" stop-color="#D2D2D2"/>
<stop offset="1" stop-color="#737373"/>
</linearGradient>
<linearGradient id="paint37_linear_549_4139" x1="77.9742" y1="59.9366" x2="92.8936" y2="92.7458" gradientUnits="userSpaceOnUse">
<stop stop-color="#D2CDCE"/>
<stop offset="0.74" stop-color="#5E5C5D"/>
<stop offset="1" stop-color="#494748"/>
</linearGradient>
<linearGradient id="paint38_linear_549_4139" x1="69.8012" y1="53.9635" x2="45.5705" y2="73.4856" gradientUnits="userSpaceOnUse">
<stop stop-color="#DBDBDB"/>
<stop offset="1" stop-color="#555555"/>
</linearGradient>
<linearGradient id="paint39_linear_549_4139" x1="70.3771" y1="50.8172" x2="88.3593" y2="96.5732" gradientUnits="userSpaceOnUse">
<stop stop-color="#D1D1D1"/>
<stop offset="0.375" stop-color="#D2D2D2"/>
<stop offset="1" stop-color="#737373"/>
</linearGradient>
</defs>
</svg>
