<svg width="447" height="318" viewBox="0 0 447 318" fill="none" xmlns="http://www.w3.org/2000/svg">
<path d="M408.933 182.638L486.414 239.263L407.055 272.327L328.635 214.1L408.933 182.638Z" fill="#E9E9E9"/>
<path d="M407.055 272.134L486.414 239.264L474.205 337.406L393.437 368.868L407.055 272.134Z" fill="url(#paint0_linear_549_4140)"/>
<path d="M328.635 214.569L407.055 272.328L393.437 370L323 315.999L328.635 214.569Z" fill="#0E0E0E"/>
<path d="M381.71 193.251L457.494 251.265L437.285 259.453L362.721 200.742L381.71 193.251Z" fill="url(#paint1_linear_549_4140)"/>
<path d="M437.111 259.453L457.494 251.265L446.693 348.128L428.226 355.445L437.111 259.453Z" fill="url(#paint2_linear_549_4140)"/>
<path d="M408.933 182.638L486.414 239.263L407.055 272.327L328.635 214.1L408.933 182.638Z" fill="#E9E9E9"/>
<path d="M407.055 272.134L486.414 239.264L474.205 337.406L393.437 368.868L407.055 272.134Z" fill="url(#paint3_linear_549_4140)"/>
<path d="M328.635 214.569L407.055 272.328L393.437 370L323 315.999L328.635 214.569Z" fill="#0E0E0E"/>
<path d="M381.71 193.251L457.494 251.265L437.285 259.453L362.721 200.742L381.71 193.251Z" fill="url(#paint4_linear_549_4140)"/>
<path d="M437.111 259.453L457.494 251.265L446.693 348.128L428.226 355.445L437.111 259.453Z" fill="url(#paint5_linear_549_4140)"/>
<path d="M316.483 75.761L362 109.027L315.379 128.451L269.31 94.2438L316.483 75.761Z" fill="#E9E9E9"/>
<path d="M315.379 128.337L362 109.026L354.828 166.682L307.379 185.164L315.379 128.337Z" fill="url(#paint6_linear_549_4140)"/>
<path d="M269.31 94.5195L315.379 128.451L307.379 185.83L266 154.106L269.31 94.5195Z" fill="#0E0E0E"/>
<path d="M300.49 81.9961L345.011 116.077L333.139 120.887L289.335 86.3969L300.49 81.9961Z" fill="url(#paint7_linear_549_4140)"/>
<path d="M333.036 120.887L345.011 116.077L338.665 172.981L327.817 177.28L333.036 120.887Z" fill="url(#paint8_linear_549_4140)"/>
<path d="M316.483 75.761L362 109.027L315.379 128.451L269.31 94.2438L316.483 75.761Z" fill="#E9E9E9"/>
<path d="M315.379 128.337L362 109.026L354.828 166.682L307.379 185.164L315.379 128.337Z" fill="url(#paint9_linear_549_4140)"/>
<path d="M269.31 94.5195L315.379 128.451L307.379 185.83L266 154.106L269.31 94.5195Z" fill="#0E0E0E"/>
<path d="M300.49 81.9961L345.011 116.077L333.139 120.887L289.335 86.3969L300.49 81.9961Z" fill="url(#paint10_linear_549_4140)"/>
<path d="M333.036 120.887L345.011 116.077L338.665 172.981L327.817 177.28L333.036 120.887Z" fill="url(#paint11_linear_549_4140)"/>
<path d="M184.989 171.877L260.717 227.221L183.153 259.537L106.508 202.627L184.989 171.877Z" fill="#E9E9E9"/>
<path d="M183.153 259.348L260.716 227.221L248.784 323.142L169.843 353.892L183.153 259.348Z" fill="url(#paint12_linear_549_4140)"/>
<path d="M106.507 203.086L183.153 259.537L169.843 355L101 302.22L106.507 203.086Z" fill="#0E0E0E"/>
<path d="M158.382 182.25L232.451 238.951L212.699 246.954L139.822 189.572L158.382 182.25Z" fill="url(#paint13_linear_549_4140)"/>
<path d="M212.529 246.953L232.451 238.95L221.894 333.622L203.845 340.774L212.529 246.953Z" fill="url(#paint14_linear_549_4140)"/>
<path d="M184.989 171.877L260.717 227.221L183.153 259.537L106.508 202.627L184.989 171.877Z" fill="#E9E9E9"/>
<path d="M183.153 259.348L260.716 227.221L248.784 323.142L169.843 353.892L183.153 259.348Z" fill="url(#paint15_linear_549_4140)"/>
<path d="M106.507 203.086L183.153 259.537L169.843 355L101 302.22L106.507 203.086Z" fill="#0E0E0E"/>
<path d="M158.382 182.25L232.451 238.951L212.699 246.954L139.822 189.572L158.382 182.25Z" fill="url(#paint16_linear_549_4140)"/>
<path d="M212.529 246.953L232.451 238.95L221.894 333.622L203.845 340.774L212.529 246.953Z" fill="url(#paint17_linear_549_4140)"/>
<path d="M174.164 21.2019L223 56.8932L172.98 77.7335L123.552 41.0324L174.164 21.2019Z" fill="#E9E9E9"/>
<path d="M172.98 77.611L223 56.8926L215.304 118.752L164.396 138.582L172.98 77.611Z" fill="url(#paint18_linear_549_4140)"/>
<path d="M123.552 41.3281L172.98 77.7333L164.397 139.296L120 105.259L123.552 41.3281Z" fill="#0E0E0E"/>
<path d="M157.005 27.8916L204.772 64.4577L192.034 69.6187L145.036 32.6133L157.005 27.8916Z" fill="url(#paint19_linear_549_4140)"/>
<path d="M191.924 69.618L204.772 64.457L197.964 125.51L186.324 130.122L191.924 69.618Z" fill="url(#paint20_linear_549_4140)"/>
<path d="M174.164 21.2019L223 56.8932L172.98 77.7335L123.552 41.0324L174.164 21.2019Z" fill="#E9E9E9"/>
<path d="M172.98 77.611L223 56.8926L215.304 118.752L164.396 138.582L172.98 77.611Z" fill="url(#paint21_linear_549_4140)"/>
<path d="M123.552 41.3281L172.98 77.7333L164.397 139.296L120 105.259L123.552 41.3281Z" fill="#0E0E0E"/>
<path d="M157.005 27.8916L204.772 64.4577L192.034 69.6187L145.036 32.6133L157.005 27.8916Z" fill="url(#paint22_linear_549_4140)"/>
<path d="M191.924 69.618L204.772 64.457L197.964 125.51L186.324 130.122L191.924 69.618Z" fill="url(#paint23_linear_549_4140)"/>
<path d="M33.829 205.242L64.3304 227.534L33.0896 240.55L2.21841 217.627L33.829 205.242Z" fill="#E9E9E9"/>
<path d="M33.0894 240.473L64.3302 227.533L59.5239 266.168L27.7285 278.554L33.0894 240.473Z" fill="url(#paint24_linear_549_4140)"/>
<path d="M2.21829 217.812L33.0894 240.55L27.7286 279L0 257.742L2.21829 217.812Z" fill="#0E0E0E"/>
<path d="M23.1122 209.42L52.9455 232.258L44.99 235.481L15.6367 212.369L23.1122 209.42Z" fill="url(#paint25_linear_549_4140)"/>
<path d="M44.9215 235.481L52.9457 232.258L48.6936 270.39L41.4238 273.27L44.9215 235.481Z" fill="url(#paint26_linear_549_4140)"/>
<path d="M33.829 205.242L64.3304 227.534L33.0896 240.55L2.21841 217.627L33.829 205.242Z" fill="#E9E9E9"/>
<path d="M33.0894 240.473L64.3302 227.533L59.5239 266.168L27.7285 278.554L33.0894 240.473Z" fill="url(#paint27_linear_549_4140)"/>
<path d="M2.21829 217.812L33.0894 240.55L27.7286 279L0 257.742L2.21829 217.812Z" fill="#0E0E0E"/>
<path d="M23.1122 209.42L52.9455 232.258L44.99 235.481L15.6367 212.369L23.1122 209.42Z" fill="url(#paint28_linear_549_4140)"/>
<path d="M44.9215 235.481L52.9457 232.258L48.6936 270.39L41.4238 273.27L44.9215 235.481Z" fill="url(#paint29_linear_549_4140)"/>
<defs>
<linearGradient id="paint0_linear_549_4140" x1="440.885" y1="257.205" x2="463.384" y2="320.486" gradientUnits="userSpaceOnUse">
<stop stop-color="#D2CDCE"/>
<stop offset="0.74" stop-color="#5E5C5D"/>
<stop offset="1" stop-color="#494748"/>
</linearGradient>
<linearGradient id="paint1_linear_549_4140" x1="426.658" y1="244.819" x2="378.575" y2="277.223" gradientUnits="userSpaceOnUse">
<stop stop-color="#DBDBDB"/>
<stop offset="1" stop-color="#555555"/>
</linearGradient>
<linearGradient id="paint2_linear_549_4140" x1="428.226" y1="239.07" x2="454.358" y2="326.874" gradientUnits="userSpaceOnUse">
<stop stop-color="#D1D1D1"/>
<stop offset="0.375" stop-color="#D2D2D2"/>
<stop offset="1" stop-color="#737373"/>
</linearGradient>
<linearGradient id="paint3_linear_549_4140" x1="440.885" y1="257.205" x2="463.384" y2="320.486" gradientUnits="userSpaceOnUse">
<stop stop-color="#D2CDCE"/>
<stop offset="0.74" stop-color="#5E5C5D"/>
<stop offset="1" stop-color="#494748"/>
</linearGradient>
<linearGradient id="paint4_linear_549_4140" x1="426.658" y1="244.819" x2="378.575" y2="277.223" gradientUnits="userSpaceOnUse">
<stop stop-color="#DBDBDB"/>
<stop offset="1" stop-color="#555555"/>
</linearGradient>
<linearGradient id="paint5_linear_549_4140" x1="428.226" y1="239.07" x2="454.358" y2="326.874" gradientUnits="userSpaceOnUse">
<stop stop-color="#D1D1D1"/>
<stop offset="0.375" stop-color="#D2D2D2"/>
<stop offset="1" stop-color="#737373"/>
</linearGradient>
<linearGradient id="paint6_linear_549_4140" x1="335.254" y1="119.566" x2="348.471" y2="156.742" gradientUnits="userSpaceOnUse">
<stop stop-color="#D2CDCE"/>
<stop offset="0.74" stop-color="#5E5C5D"/>
<stop offset="1" stop-color="#494748"/>
</linearGradient>
<linearGradient id="paint7_linear_549_4140" x1="326.895" y1="112.29" x2="298.648" y2="131.327" gradientUnits="userSpaceOnUse">
<stop stop-color="#DBDBDB"/>
<stop offset="1" stop-color="#555555"/>
</linearGradient>
<linearGradient id="paint8_linear_549_4140" x1="327.817" y1="108.913" x2="343.168" y2="160.495" gradientUnits="userSpaceOnUse">
<stop stop-color="#D1D1D1"/>
<stop offset="0.375" stop-color="#D2D2D2"/>
<stop offset="1" stop-color="#737373"/>
</linearGradient>
<linearGradient id="paint9_linear_549_4140" x1="335.254" y1="119.566" x2="348.471" y2="156.742" gradientUnits="userSpaceOnUse">
<stop stop-color="#D2CDCE"/>
<stop offset="0.74" stop-color="#5E5C5D"/>
<stop offset="1" stop-color="#494748"/>
</linearGradient>
<linearGradient id="paint10_linear_549_4140" x1="326.895" y1="112.29" x2="298.648" y2="131.327" gradientUnits="userSpaceOnUse">
<stop stop-color="#DBDBDB"/>
<stop offset="1" stop-color="#555555"/>
</linearGradient>
<linearGradient id="paint11_linear_549_4140" x1="327.817" y1="108.913" x2="343.168" y2="160.495" gradientUnits="userSpaceOnUse">
<stop stop-color="#D1D1D1"/>
<stop offset="0.375" stop-color="#D2D2D2"/>
<stop offset="1" stop-color="#737373"/>
</linearGradient>
<linearGradient id="paint12_linear_549_4140" x1="216.218" y1="244.756" x2="238.207" y2="306.605" gradientUnits="userSpaceOnUse">
<stop stop-color="#D2CDCE"/>
<stop offset="0.74" stop-color="#5E5C5D"/>
<stop offset="1" stop-color="#494748"/>
</linearGradient>
<linearGradient id="paint13_linear_549_4140" x1="202.313" y1="232.651" x2="155.317" y2="264.322" gradientUnits="userSpaceOnUse">
<stop stop-color="#DBDBDB"/>
<stop offset="1" stop-color="#555555"/>
</linearGradient>
<linearGradient id="paint14_linear_549_4140" x1="203.845" y1="227.031" x2="229.386" y2="312.849" gradientUnits="userSpaceOnUse">
<stop stop-color="#D1D1D1"/>
<stop offset="0.375" stop-color="#D2D2D2"/>
<stop offset="1" stop-color="#737373"/>
</linearGradient>
<linearGradient id="paint15_linear_549_4140" x1="216.218" y1="244.756" x2="238.207" y2="306.605" gradientUnits="userSpaceOnUse">
<stop stop-color="#D2CDCE"/>
<stop offset="0.74" stop-color="#5E5C5D"/>
<stop offset="1" stop-color="#494748"/>
</linearGradient>
<linearGradient id="paint16_linear_549_4140" x1="202.313" y1="232.651" x2="155.317" y2="264.322" gradientUnits="userSpaceOnUse">
<stop stop-color="#DBDBDB"/>
<stop offset="1" stop-color="#555555"/>
</linearGradient>
<linearGradient id="paint17_linear_549_4140" x1="203.845" y1="227.031" x2="229.386" y2="312.849" gradientUnits="userSpaceOnUse">
<stop stop-color="#D1D1D1"/>
<stop offset="0.375" stop-color="#D2D2D2"/>
<stop offset="1" stop-color="#737373"/>
</linearGradient>
<linearGradient id="paint18_linear_549_4140" x1="194.303" y1="68.2011" x2="208.484" y2="108.087" gradientUnits="userSpaceOnUse">
<stop stop-color="#D2CDCE"/>
<stop offset="0.74" stop-color="#5E5C5D"/>
<stop offset="1" stop-color="#494748"/>
</linearGradient>
<linearGradient id="paint19_linear_549_4140" x1="185.336" y1="60.3948" x2="155.029" y2="80.8191" gradientUnits="userSpaceOnUse">
<stop stop-color="#DBDBDB"/>
<stop offset="1" stop-color="#555555"/>
</linearGradient>
<linearGradient id="paint20_linear_549_4140" x1="186.324" y1="56.7705" x2="202.795" y2="112.114" gradientUnits="userSpaceOnUse">
<stop stop-color="#D1D1D1"/>
<stop offset="0.375" stop-color="#D2D2D2"/>
<stop offset="1" stop-color="#737373"/>
</linearGradient>
<linearGradient id="paint21_linear_549_4140" x1="194.303" y1="68.2011" x2="208.484" y2="108.087" gradientUnits="userSpaceOnUse">
<stop stop-color="#D2CDCE"/>
<stop offset="0.74" stop-color="#5E5C5D"/>
<stop offset="1" stop-color="#494748"/>
</linearGradient>
<linearGradient id="paint22_linear_549_4140" x1="185.336" y1="60.3948" x2="155.029" y2="80.8191" gradientUnits="userSpaceOnUse">
<stop stop-color="#DBDBDB"/>
<stop offset="1" stop-color="#555555"/>
</linearGradient>
<linearGradient id="paint23_linear_549_4140" x1="186.324" y1="56.7705" x2="202.795" y2="112.114" gradientUnits="userSpaceOnUse">
<stop stop-color="#D1D1D1"/>
<stop offset="0.375" stop-color="#D2D2D2"/>
<stop offset="1" stop-color="#737373"/>
</linearGradient>
<linearGradient id="paint24_linear_549_4140" x1="46.4072" y1="234.596" x2="55.2641" y2="259.508" gradientUnits="userSpaceOnUse">
<stop stop-color="#D2CDCE"/>
<stop offset="0.74" stop-color="#5E5C5D"/>
<stop offset="1" stop-color="#494748"/>
</linearGradient>
<linearGradient id="paint25_linear_549_4140" x1="40.8065" y1="229.72" x2="21.8777" y2="242.477" gradientUnits="userSpaceOnUse">
<stop stop-color="#DBDBDB"/>
<stop offset="1" stop-color="#555555"/>
</linearGradient>
<linearGradient id="paint26_linear_549_4140" x1="41.4238" y1="227.457" x2="51.7112" y2="262.023" gradientUnits="userSpaceOnUse">
<stop stop-color="#D1D1D1"/>
<stop offset="0.375" stop-color="#D2D2D2"/>
<stop offset="1" stop-color="#737373"/>
</linearGradient>
<linearGradient id="paint27_linear_549_4140" x1="46.4072" y1="234.596" x2="55.2641" y2="259.508" gradientUnits="userSpaceOnUse">
<stop stop-color="#D2CDCE"/>
<stop offset="0.74" stop-color="#5E5C5D"/>
<stop offset="1" stop-color="#494748"/>
</linearGradient>
<linearGradient id="paint28_linear_549_4140" x1="40.8065" y1="229.72" x2="21.8777" y2="242.477" gradientUnits="userSpaceOnUse">
<stop stop-color="#DBDBDB"/>
<stop offset="1" stop-color="#555555"/>
</linearGradient>
<linearGradient id="paint29_linear_549_4140" x1="41.4238" y1="227.457" x2="51.7112" y2="262.023" gradientUnits="userSpaceOnUse">
<stop stop-color="#D1D1D1"/>
<stop offset="0.375" stop-color="#D2D2D2"/>
<stop offset="1" stop-color="#737373"/>
</linearGradient>
</defs>
</svg>
