<svg width="129" height="197" viewBox="0 0 129 197" fill="none" xmlns="http://www.w3.org/2000/svg">
<path d="M107.546 44.2169L128.776 59.7326L107.031 68.7923L85.5439 52.8376L107.546 44.2169Z" fill="#E9E9E9"/>
<path d="M107.031 68.7391L128.776 59.7324L125.431 86.6238L103.3 95.2445L107.031 68.7391Z" fill="url(#paint0_linear_558_4152)"/>
<path d="M85.544 52.9658L107.031 68.7919L103.3 95.5546L84 80.7579L85.544 52.9658Z" fill="#0E0E0E"/>
<path d="M100.087 47.125L120.852 63.021L115.315 65.2646L94.8838 49.1776L100.087 47.125Z" fill="url(#paint1_linear_558_4152)"/>
<path d="M115.267 65.2641L120.852 63.0205L117.892 89.5616L112.832 91.5665L115.267 65.2641Z" fill="url(#paint2_linear_558_4152)"/>
<path d="M107.546 44.2169L128.776 59.7326L107.031 68.7923L85.5439 52.8376L107.546 44.2169Z" fill="#E9E9E9"/>
<path d="M107.031 68.7391L128.776 59.7324L125.431 86.6238L103.3 95.2445L107.031 68.7391Z" fill="url(#paint3_linear_558_4152)"/>
<path d="M85.544 52.9658L107.031 68.7919L103.3 95.5546L84 80.7579L85.544 52.9658Z" fill="#0E0E0E"/>
<path d="M100.087 47.125L120.852 63.021L115.315 65.2646L94.8838 49.1776L100.087 47.125Z" fill="url(#paint4_linear_558_4152)"/>
<path d="M115.267 65.2641L120.852 63.0205L117.892 89.5616L112.832 91.5665L115.267 65.2641Z" fill="url(#paint5_linear_558_4152)"/>
<path d="M30.9223 11.3214L56.9999 30.3798L30.2902 41.5082L3.8965 21.9105L30.9223 11.3214Z" fill="#E9E9E9"/>
<path d="M30.2901 41.4431L56.9999 30.3799L52.8907 63.4115L25.7068 74.0005L30.2901 41.4431Z" fill="url(#paint6_linear_558_4152)"/>
<path d="M3.89655 22.0684L30.2902 41.508L25.7069 74.3815L2 56.2063L3.89655 22.0684Z" fill="#0E0E0E"/>
<path d="M21.7602 14.8936L47.2666 34.4191L40.4648 37.175L15.3689 17.4149L21.7602 14.8936Z" fill="url(#paint7_linear_558_4152)"/>
<path d="M40.4062 37.1748L47.2665 34.4189L43.6311 67.0202L37.4158 69.4829L40.4062 37.1748Z" fill="url(#paint8_linear_558_4152)"/>
<path d="M30.9223 11.3214L56.9999 30.3798L30.2902 41.5082L3.8965 21.9105L30.9223 11.3214Z" fill="#E9E9E9"/>
<path d="M30.2901 41.4431L56.9999 30.3799L52.8907 63.4115L25.7068 74.0005L30.2901 41.4431Z" fill="url(#paint9_linear_558_4152)"/>
<path d="M3.89655 22.0684L30.2902 41.508L25.7069 74.3815L2 56.2063L3.89655 22.0684Z" fill="#0E0E0E"/>
<path d="M21.7602 14.8936L47.2666 34.4191L40.4648 37.175L15.3689 17.4149L21.7602 14.8936Z" fill="url(#paint10_linear_558_4152)"/>
<path d="M40.4062 37.1748L47.2665 34.4189L43.6311 67.0202L37.4158 69.4829L40.4062 37.1748Z" fill="url(#paint11_linear_558_4152)"/>
<path d="M53.2051 83.3958L100.184 117.73L52.0663 137.778L4.51756 102.472L53.2051 83.3958Z" fill="#E9E9E9"/>
<path d="M52.0663 137.661L100.184 117.73L92.7816 177.238L43.8093 196.314L52.0663 137.661Z" fill="url(#paint12_linear_558_4152)"/>
<path d="M4.5176 102.757L52.0663 137.778L43.8093 197L0 159.882L4.5176 102.757Z" fill="#0E0E0E"/>
<path d="M36.6993 89.8311L82.6495 125.007L70.3961 129.972L25.1853 94.3733L36.6993 89.8311Z" fill="url(#paint13_linear_558_4152)"/>
<path d="M70.2903 129.972L82.6494 125.007L76.1002 183.739L64.9031 188.175L70.2903 129.972Z" fill="url(#paint14_linear_558_4152)"/>
<path d="M53.2051 83.3958L100.184 117.73L52.0663 137.778L4.51756 102.472L53.2051 83.3958Z" fill="#E9E9E9"/>
<path d="M52.0663 137.661L100.184 117.73L92.7816 177.238L43.8093 196.314L52.0663 137.661Z" fill="url(#paint15_linear_558_4152)"/>
<path d="M36.6993 89.8311L82.6495 125.007L70.3961 129.972L25.1853 94.3733L36.6993 89.8311Z" fill="url(#paint16_linear_558_4152)"/>
<path d="M70.2903 129.972L82.6494 125.007L76.1002 183.739L64.9031 188.175L70.2903 129.972Z" fill="url(#paint17_linear_558_4152)"/>
<defs>
<linearGradient id="paint0_linear_558_4152" x1="116.301" y1="64.6485" x2="122.466" y2="81.9877" gradientUnits="userSpaceOnUse">
<stop stop-color="#D2CDCE"/>
<stop offset="0.74" stop-color="#5E5C5D"/>
<stop offset="1" stop-color="#494748"/>
</linearGradient>
<linearGradient id="paint1_linear_558_4152" x1="112.403" y1="61.2548" x2="99.2277" y2="70.1336" gradientUnits="userSpaceOnUse">
<stop stop-color="#DBDBDB"/>
<stop offset="1" stop-color="#555555"/>
</linearGradient>
<linearGradient id="paint2_linear_558_4152" x1="112.832" y1="59.679" x2="119.993" y2="83.7378" gradientUnits="userSpaceOnUse">
<stop stop-color="#D1D1D1"/>
<stop offset="0.375" stop-color="#D2D2D2"/>
<stop offset="1" stop-color="#737373"/>
</linearGradient>
<linearGradient id="paint3_linear_558_4152" x1="116.301" y1="64.6485" x2="122.466" y2="81.9877" gradientUnits="userSpaceOnUse">
<stop stop-color="#D2CDCE"/>
<stop offset="0.74" stop-color="#5E5C5D"/>
<stop offset="1" stop-color="#494748"/>
</linearGradient>
<linearGradient id="paint4_linear_558_4152" x1="112.403" y1="61.2548" x2="99.2277" y2="70.1336" gradientUnits="userSpaceOnUse">
<stop stop-color="#DBDBDB"/>
<stop offset="1" stop-color="#555555"/>
</linearGradient>
<linearGradient id="paint5_linear_558_4152" x1="112.832" y1="59.679" x2="119.993" y2="83.7378" gradientUnits="userSpaceOnUse">
<stop stop-color="#D1D1D1"/>
<stop offset="0.375" stop-color="#D2D2D2"/>
<stop offset="1" stop-color="#737373"/>
</linearGradient>
<linearGradient id="paint6_linear_558_4152" x1="41.6764" y1="36.4184" x2="49.2487" y2="57.7168" gradientUnits="userSpaceOnUse">
<stop stop-color="#D2CDCE"/>
<stop offset="0.74" stop-color="#5E5C5D"/>
<stop offset="1" stop-color="#494748"/>
</linearGradient>
<linearGradient id="paint7_linear_558_4152" x1="36.8881" y1="32.2496" x2="20.7047" y2="43.1558" gradientUnits="userSpaceOnUse">
<stop stop-color="#DBDBDB"/>
<stop offset="1" stop-color="#555555"/>
</linearGradient>
<linearGradient id="paint8_linear_558_4152" x1="37.4158" y1="30.3145" x2="46.2111" y2="59.8667" gradientUnits="userSpaceOnUse">
<stop stop-color="#D1D1D1"/>
<stop offset="0.375" stop-color="#D2D2D2"/>
<stop offset="1" stop-color="#737373"/>
</linearGradient>
<linearGradient id="paint9_linear_558_4152" x1="41.6764" y1="36.4184" x2="49.2487" y2="57.7168" gradientUnits="userSpaceOnUse">
<stop stop-color="#D2CDCE"/>
<stop offset="0.74" stop-color="#5E5C5D"/>
<stop offset="1" stop-color="#494748"/>
</linearGradient>
<linearGradient id="paint10_linear_558_4152" x1="36.8881" y1="32.2496" x2="20.7047" y2="43.1558" gradientUnits="userSpaceOnUse">
<stop stop-color="#DBDBDB"/>
<stop offset="1" stop-color="#555555"/>
</linearGradient>
<linearGradient id="paint11_linear_558_4152" x1="37.4158" y1="30.3145" x2="46.2111" y2="59.8667" gradientUnits="userSpaceOnUse">
<stop stop-color="#D1D1D1"/>
<stop offset="0.375" stop-color="#D2D2D2"/>
<stop offset="1" stop-color="#737373"/>
</linearGradient>
<linearGradient id="paint12_linear_558_4152" x1="72.5788" y1="128.609" x2="86.2205" y2="166.978" gradientUnits="userSpaceOnUse">
<stop stop-color="#D2CDCE"/>
<stop offset="0.74" stop-color="#5E5C5D"/>
<stop offset="1" stop-color="#494748"/>
</linearGradient>
<linearGradient id="paint13_linear_558_4152" x1="63.9525" y1="121.098" x2="34.7979" y2="140.746" gradientUnits="userSpaceOnUse">
<stop stop-color="#DBDBDB"/>
<stop offset="1" stop-color="#555555"/>
</linearGradient>
<linearGradient id="paint14_linear_558_4152" x1="64.9031" y1="117.613" x2="80.748" y2="170.851" gradientUnits="userSpaceOnUse">
<stop stop-color="#D1D1D1"/>
<stop offset="0.375" stop-color="#D2D2D2"/>
<stop offset="1" stop-color="#737373"/>
</linearGradient>
<linearGradient id="paint15_linear_558_4152" x1="72.5788" y1="128.609" x2="86.2205" y2="166.978" gradientUnits="userSpaceOnUse">
<stop stop-color="#D2CDCE"/>
<stop offset="0.74" stop-color="#5E5C5D"/>
<stop offset="1" stop-color="#494748"/>
</linearGradient>
<linearGradient id="paint16_linear_558_4152" x1="63.9525" y1="121.098" x2="34.7979" y2="140.746" gradientUnits="userSpaceOnUse">
<stop stop-color="#DBDBDB"/>
<stop offset="1" stop-color="#555555"/>
</linearGradient>
<linearGradient id="paint17_linear_558_4152" x1="64.9031" y1="117.613" x2="80.748" y2="170.851" gradientUnits="userSpaceOnUse">
<stop stop-color="#D1D1D1"/>
<stop offset="0.375" stop-color="#D2D2D2"/>
<stop offset="1" stop-color="#737373"/>
</linearGradient>
</defs>
</svg>
