<svg width="35" height="35" viewBox="0 0 35 35" fill="none" xmlns="http://www.w3.org/2000/svg">
<path d="M17.5 18.9587C20.9942 18.9587 24.1719 19.9707 26.5096 21.397C27.6763 22.1087 28.6738 22.9487 29.3942 23.8616C30.1029 24.7584 30.625 25.8318 30.625 26.9795C30.625 28.2118 30.0256 29.183 29.1623 29.8757C28.3456 30.532 27.2679 30.9666 26.1231 31.2699C23.8219 31.878 20.7506 32.0837 17.5 32.0837C14.2494 32.0837 11.1781 31.8795 8.87687 31.2699C7.73208 30.9666 6.65437 30.532 5.83771 29.8757C4.97292 29.1816 4.375 28.2118 4.375 26.9795C4.375 25.8318 4.89708 24.7584 5.60583 23.8601C6.32625 22.9487 7.32229 22.1101 8.49042 21.3955C10.8281 19.9722 14.0073 18.9587 17.5 18.9587ZM17.5 2.91699C19.4339 2.91699 21.2885 3.68522 22.656 5.05267C24.0234 6.42012 24.7917 8.27479 24.7917 10.2087C24.7917 12.1425 24.0234 13.9972 22.656 15.3646C21.2885 16.7321 19.4339 17.5003 17.5 17.5003C15.5661 17.5003 13.7115 16.7321 12.344 15.3646C10.9766 13.9972 10.2083 12.1425 10.2083 10.2087C10.2083 8.27479 10.9766 6.42012 12.344 5.05267C13.7115 3.68522 15.5661 2.91699 17.5 2.91699Z" fill="black" fill-opacity="0.5"/>
</svg>
