<svg width="101" height="303" viewBox="0 0 101 303" fill="none" xmlns="http://www.w3.org/2000/svg">
<g clip-path="url(#clip0_549_4146)">
<path d="M20.0585 207.349C20.049 208.155 19.8698 208.931 19.5288 209.67C19.1801 210.408 18.6931 211.067 18.0605 211.626C17.4278 212.191 16.704 212.621 15.8889 212.923C15.0661 213.225 14.2142 213.363 13.3332 213.353C12.4523 213.342 11.6039 213.184 10.7962 212.863C9.98065 212.542 9.2671 212.095 8.6556 211.515C8.03629 210.942 7.56496 210.272 7.23366 209.525C6.90236 208.779 6.74148 207.999 6.75096 207.193C6.76051 206.379 6.93959 205.61 7.28843 204.865C7.63718 204.126 8.12404 203.474 8.75674 202.909C9.3817 202.343 10.1056 201.913 10.9284 201.612C11.7434 201.317 12.5953 201.171 13.4763 201.182C14.3573 201.192 15.2055 201.358 16.0211 201.671C16.8289 201.992 17.5424 202.439 18.1616 203.019C18.7809 203.599 19.2523 204.263 19.5836 205.009C19.9071 205.763 20.068 206.536 20.0585 207.349Z" fill="#D4D2D3"/>
<path d="M58.5515 207.801C58.542 208.607 58.3706 209.383 58.0218 210.122C57.6731 210.86 57.1861 211.52 56.5535 212.078C55.9285 212.643 55.2047 213.074 54.3819 213.375C53.5668 213.677 52.715 213.815 51.834 213.805C50.953 213.795 50.1047 213.636 49.2892 213.315C48.4814 212.995 47.7678 212.548 47.1486 211.967C46.5293 211.394 46.058 210.724 45.7267 209.977C45.4031 209.231 45.2422 208.451 45.2517 207.645C45.2612 206.831 45.4403 206.063 45.7814 205.317C46.1302 204.578 46.617 203.926 47.2497 203.361C47.8824 202.795 48.6063 202.365 49.4214 202.064C50.2441 201.769 51.096 201.623 51.977 201.634C52.858 201.644 53.7062 201.81 54.5141 202.123C55.3296 202.444 56.0431 202.891 56.6546 203.471C57.2739 204.051 57.7453 204.715 58.0766 205.461C58.4078 206.215 58.561 206.988 58.5515 207.801Z" fill="#D4D2D3"/>
<path d="M97.0521 208.253C97.0426 209.059 96.8635 209.835 96.5147 210.574C96.1737 211.313 95.679 211.972 95.0542 212.53C94.4215 213.096 93.6976 213.526 92.8748 213.827C92.0597 214.129 91.2079 214.267 90.3269 214.257C89.4459 214.247 88.5976 214.088 87.7898 213.767C86.9743 213.447 86.2608 213 85.6415 212.42C85.0299 211.847 84.5509 211.176 84.2273 210.43C83.896 209.683 83.7351 208.903 83.7446 208.097C83.7542 207.284 83.9332 206.515 84.2821 205.769C84.6231 205.03 85.1177 204.378 85.7427 203.813C86.3754 203.247 87.0992 202.817 87.922 202.516C88.737 202.221 89.5889 202.076 90.4699 202.086C91.3509 202.096 92.1991 202.262 93.007 202.576C93.8225 202.896 94.5361 203.343 95.1553 203.923C95.7668 204.504 96.2459 205.167 96.5695 205.913C96.9007 206.667 97.0617 207.44 97.0521 208.253Z" fill="#D4D2D3"/>
<path d="M19.6447 242.575C19.6352 243.381 19.456 244.157 19.115 244.895C18.7662 245.641 18.2793 246.293 17.6466 246.859C17.014 247.417 16.2901 247.854 15.475 248.149C14.6522 248.45 13.8003 248.596 12.9193 248.585C12.0384 248.575 11.1901 248.409 10.3823 248.089C9.56675 247.775 8.85329 247.321 8.2417 246.748C7.62247 246.168 7.15106 245.504 6.81984 244.751C6.48854 244.004 6.32767 243.224 6.33714 242.418C6.34661 241.612 6.52577 240.836 6.87452 240.097C7.22336 239.352 7.71022 238.7 8.34292 238.134C8.9678 237.576 9.69173 237.139 10.5145 236.844C11.3296 236.543 12.1815 236.397 13.0624 236.407C13.9434 236.418 14.7917 236.583 15.6072 236.904C16.415 237.218 17.1285 237.672 17.7478 238.245C18.3671 238.825 18.8385 239.488 19.1697 240.242C19.4933 240.988 19.6541 241.768 19.6447 242.575Z" fill="#D4D2D3"/>
<path d="M58.1374 243.027C58.1279 243.833 57.9565 244.609 57.6078 245.347C57.2589 246.093 56.7721 246.745 56.1394 247.311C55.5145 247.869 54.7905 248.306 53.9678 248.601C53.1527 248.902 52.3008 249.048 51.4198 249.038C50.5388 249.027 49.6906 248.862 48.8751 248.541C48.0672 248.227 47.3538 247.773 46.7345 247.2C46.1152 246.62 45.6438 245.957 45.3126 245.203C44.989 244.456 44.8282 243.677 44.8376 242.87C44.8471 242.064 45.0263 241.288 45.3673 240.549C45.7161 239.804 46.203 239.152 46.8357 238.586C47.4683 238.028 48.1922 237.591 49.0072 237.296C49.83 236.995 50.682 236.849 51.5629 236.859C52.4439 236.87 53.2922 237.035 54.0999 237.356C54.9155 237.67 55.629 238.124 56.2406 238.697C56.8598 239.277 57.3312 239.94 57.6624 240.694C57.9937 241.441 58.1469 242.22 58.1374 243.027Z" fill="#D4D2D3"/>
<path d="M96.6383 243.48C96.6288 244.286 96.4497 245.062 96.1009 245.801C95.7598 246.546 95.2652 247.198 94.6403 247.764C94.0076 248.322 93.2837 248.759 92.461 249.054C91.6459 249.355 90.794 249.501 89.913 249.491C89.032 249.48 88.1838 249.315 87.376 248.994C86.5604 248.68 85.8469 248.226 85.2276 247.653C84.6161 247.073 84.137 246.41 83.8135 245.656C83.4822 244.91 83.3213 244.13 83.3308 243.323C83.3403 242.517 83.5194 241.741 83.8682 241.003C84.2093 240.257 84.7039 239.605 85.3288 239.039C85.9615 238.481 86.6854 238.044 87.5081 237.749C88.3232 237.448 89.1751 237.302 90.0561 237.313C90.9371 237.323 91.7853 237.488 92.5931 237.809C93.4087 238.123 94.1222 238.577 94.7415 239.15C95.353 239.73 95.8321 240.394 96.1556 241.147C96.4869 241.894 96.6478 242.674 96.6383 243.48Z" fill="#D4D2D3"/>
<path d="M19.2307 277.801C19.2211 278.614 19.042 279.383 18.7009 280.129C18.3522 280.867 17.8653 281.519 17.2326 282.085C16.5999 282.65 15.8761 283.08 15.061 283.382C14.2383 283.676 13.3863 283.822 12.5054 283.812C11.6244 283.801 10.7761 283.636 9.96827 283.322C9.15277 283.001 8.43922 282.554 7.82772 281.974C7.20849 281.394 6.73708 280.731 6.40578 279.984C6.07456 279.231 5.9136 278.458 5.92316 277.644C5.93263 276.838 6.11179 276.062 6.46055 275.324C6.80938 274.578 7.29624 273.926 7.92886 273.368C8.55382 272.802 9.27767 272.372 10.1005 272.07C10.9156 271.769 11.7674 271.63 12.6484 271.641C13.5294 271.651 14.3777 271.81 15.1932 272.13C16.001 272.451 16.7145 272.898 17.3338 273.478C17.9531 274.051 18.4245 274.715 18.7557 275.468C19.0793 276.215 19.2401 276.995 19.2307 277.801Z" fill="#D4D2D3"/>
<path d="M57.7234 278.253C57.7139 279.066 57.5425 279.835 57.1937 280.581C56.8449 281.319 56.3581 281.971 55.7254 282.537C55.1004 283.102 54.3766 283.533 53.5537 283.834C52.7387 284.129 51.8868 284.274 51.0059 284.264C50.1249 284.254 49.2766 284.088 48.461 283.774C47.6533 283.453 46.9397 283.007 46.3205 282.426C45.7012 281.846 45.2298 281.183 44.8985 280.436C44.575 279.683 44.4141 278.91 44.4236 278.097C44.4331 277.29 44.6123 276.514 44.9533 275.776C45.3021 275.03 45.789 274.378 46.4216 273.82C47.0543 273.254 47.7782 272.824 48.5933 272.523C49.4161 272.221 50.2679 272.082 51.1489 272.093C52.0299 272.103 52.8782 272.262 53.686 272.582C54.5015 272.903 55.215 273.35 55.8265 273.93C56.4458 274.503 56.9172 275.167 57.2485 275.92C57.5798 276.667 57.7329 277.447 57.7234 278.253Z" fill="#D4D2D3"/>
<path d="M96.2246 278.705C96.215 279.518 96.0359 280.287 95.6871 281.033C95.3461 281.772 94.8515 282.424 94.2265 282.989C93.5938 283.555 92.87 283.985 92.0472 284.286C91.2321 284.581 90.3802 284.726 89.4993 284.716C88.6183 284.706 87.77 284.54 86.9622 284.226C86.1467 283.906 85.4331 283.459 84.8139 282.879C84.2024 282.298 83.7233 281.635 83.3997 280.889C83.0685 280.135 82.9075 279.362 82.9171 278.549C82.9265 277.743 83.1057 276.967 83.4544 276.228C83.7956 275.482 84.2901 274.83 84.915 274.272C85.5477 273.706 86.2716 273.276 87.0944 272.975C87.9095 272.673 88.7613 272.535 89.6423 272.545C90.5233 272.555 91.3716 272.714 92.1794 273.035C92.9949 273.355 93.7084 273.802 94.3277 274.382C94.9392 274.955 95.4184 275.619 95.7419 276.372C96.0732 277.119 96.234 277.899 96.2246 278.705Z" fill="#D4D2D3"/>
</g>
<g clip-path="url(#clip1_549_4146)">
<mask id="mask0_549_4146" style="mask-type:luminance" maskUnits="userSpaceOnUse" x="5" y="27" width="17" height="14">
<path d="M6.02783 27.1348L21.8547 27.3207L21.698 40.6516L5.87118 40.4656L6.02783 27.1348Z" fill="white"/>
</mask>
<g mask="url(#mask0_549_4146)">
<path d="M20.8866 33.3997C20.8771 34.2059 20.698 34.9819 20.3569 35.7205C20.0081 36.4662 19.5212 37.1182 18.8886 37.6766C18.2559 38.2421 17.5321 38.6722 16.717 38.9738C15.8942 39.2753 15.0423 39.4209 14.1613 39.4106C13.2803 39.4002 12.4321 39.2346 11.6243 38.9139C10.8088 38.5931 10.0952 38.1462 9.48373 37.5661C8.86441 36.993 8.39301 36.3297 8.06179 35.576C7.73048 34.8295 7.56961 34.0496 7.57908 33.2433C7.58856 32.4371 7.76771 31.6612 8.11655 30.9156C8.46531 30.177 8.95217 29.5249 9.58486 28.9594C10.2098 28.3939 10.9337 27.9638 11.7564 27.6694C12.5715 27.3677 13.4234 27.2221 14.3044 27.2325C15.1854 27.2428 16.0336 27.4084 16.8491 27.7292C17.657 28.0428 18.3705 28.4898 18.9898 29.0699C19.609 29.6501 20.0804 30.3135 20.4117 31.06C20.7352 31.8136 20.8961 32.5935 20.8866 33.3997Z" fill="#D4D2D3"/>
</g>
<mask id="mask1_549_4146" style="mask-type:luminance" maskUnits="userSpaceOnUse" x="45" y="27" width="17" height="15">
<path d="M45.5947 27.5996L61.4216 27.7856L61.2649 41.1164L45.4381 40.9304L45.5947 27.5996Z" fill="white"/>
</mask>
<g mask="url(#mask1_549_4146)">
<path d="M59.3794 33.8518C59.3699 34.658 59.1985 35.434 58.8497 36.1726C58.5009 36.9182 58.014 37.5703 57.3814 38.1287C56.7564 38.6943 56.0326 39.1243 55.2098 39.4258C54.3947 39.7275 53.5428 39.8731 52.6618 39.8627C51.7808 39.8524 50.9325 39.6868 50.117 39.366C49.3093 39.0453 48.5957 38.5984 47.9765 38.0182C47.3572 37.4451 46.8858 36.7817 46.5545 36.0281C46.231 35.2816 46.0701 34.5017 46.0796 33.6955C46.089 32.8893 46.2682 32.1133 46.6093 31.3676C46.9581 30.629 47.4449 29.977 48.0776 29.4115C48.7103 28.846 49.4342 28.416 50.2492 28.1214C51.072 27.8199 51.9239 27.6743 52.8049 27.6846C53.6859 27.695 54.5341 27.8606 55.3419 28.1813C56.1575 28.495 56.871 28.9419 57.4825 29.522C58.1018 30.1022 58.5732 30.7655 58.9045 31.5121C59.2357 32.2657 59.3888 33.0456 59.3794 33.8518Z" fill="#D4D2D3"/>
</g>
<mask id="mask2_549_4146" style="mask-type:luminance" maskUnits="userSpaceOnUse" x="83" y="28" width="17" height="14">
<path d="M83.1838 28.041L99.0107 28.227L98.854 41.5578L83.0272 41.3719L83.1838 28.041Z" fill="white"/>
</mask>
<g mask="url(#mask2_549_4146)">
<path d="M97.8805 34.304C97.871 35.1102 97.6919 35.8862 97.3431 36.6247C97.002 37.3705 96.5074 38.0224 95.8825 38.5809C95.2498 39.1464 94.526 39.5764 93.7032 39.878C92.8881 40.1796 92.0362 40.3252 91.1552 40.3149C90.2742 40.3045 89.426 40.1389 88.6182 39.8182C87.8027 39.4974 87.0891 39.0505 86.4699 38.4703C85.8583 37.8973 85.3792 37.2339 85.0557 36.4803C84.7244 35.7338 84.5635 34.9539 84.573 34.1476C84.5825 33.3414 84.7616 32.5655 85.1104 31.8199C85.4515 31.0812 85.9461 30.4292 86.571 29.8636C87.2037 29.2982 87.9276 28.8681 88.7503 28.5737C89.5654 28.272 90.4173 28.1264 91.2983 28.1368C92.1793 28.1471 93.0275 28.3127 93.8353 28.6334C94.6509 28.9471 95.3644 29.3941 95.9837 29.9742C96.5952 30.5543 97.0743 31.2178 97.3979 31.9642C97.7291 32.7179 97.89 33.4978 97.8805 34.304Z" fill="#D4D2D3"/>
</g>
<path d="M20.4728 68.6253C20.4633 69.4315 20.2842 70.2074 19.943 70.9532C19.5943 71.6918 19.1074 72.3438 18.4747 72.9093C17.842 73.4748 17.1182 73.9048 16.3032 74.1994C15.4804 74.5009 14.6285 74.6465 13.7475 74.6362C12.8665 74.6258 12.0182 74.4602 11.2105 74.1395C10.3949 73.8258 9.68133 73.3789 9.06982 72.7988C8.45059 72.2186 7.97919 71.5553 7.64788 70.8087C7.31666 70.0551 7.15579 69.2751 7.16526 68.4689C7.17474 67.6627 7.35389 66.8868 7.70265 66.1482C8.05149 65.4026 8.53835 64.7505 9.17096 64.1921C9.79593 63.6265 10.5198 63.1965 11.3426 62.895C12.1577 62.5933 13.0096 62.4477 13.8906 62.4581C14.7716 62.4684 15.6198 62.634 16.4353 62.9548C17.2431 63.2755 17.9566 63.7224 18.5759 64.3026C19.1952 64.8757 19.6666 65.5391 19.9978 66.2927C20.3214 67.0392 20.4823 67.8191 20.4728 68.6253Z" fill="#D4D2D3"/>
<path d="M58.9655 69.0774C58.9561 69.8836 58.7846 70.6596 58.4358 71.4052C58.087 72.1438 57.6002 72.7959 56.9675 73.3614C56.3425 73.9269 55.6187 74.357 54.7959 74.6514C53.9808 74.9531 53.1289 75.0987 52.248 75.0883C51.367 75.078 50.5187 74.9124 49.7032 74.5916C48.8954 74.278 48.1818 73.831 47.5626 73.2508C46.9434 72.6707 46.4719 72.0073 46.1406 71.2608C45.8172 70.5072 45.6563 69.7273 45.6658 68.9211C45.6752 68.1149 45.8544 67.3389 46.1954 66.6003C46.5442 65.8546 47.0311 65.2026 47.6637 64.6441C48.2964 64.0787 49.0203 63.6486 49.8354 63.347C50.6582 63.0455 51.5101 62.8999 52.3911 62.9102C53.272 62.9206 54.1203 63.0861 54.9281 63.4069C55.7436 63.7277 56.4571 64.1746 57.0686 64.7547C57.6879 65.3278 58.1593 65.9911 58.4906 66.7448C58.8219 67.4913 58.975 68.2711 58.9655 69.0774Z" fill="#D4D2D3"/>
<path d="M97.4664 69.5296C97.457 70.3358 97.2778 71.1117 96.929 71.8574C96.5879 72.596 96.0933 73.248 95.4684 73.8136C94.8357 74.3791 94.1118 74.8091 93.2891 75.1036C92.474 75.4052 91.6221 75.5508 90.7411 75.5405C89.8601 75.5301 89.0119 75.3645 88.2041 75.0438C87.3885 74.7301 86.675 74.2832 86.0557 73.703C85.4442 73.1229 84.9651 72.4595 84.6415 71.713C84.3103 70.9594 84.1494 70.1794 84.1589 69.3732C84.1684 68.567 84.3475 67.7911 84.6963 67.0525C85.0374 66.3068 85.532 65.6548 86.1569 65.0963C86.7896 64.5308 87.5134 64.1008 88.3362 63.7992C89.1513 63.4976 90.0032 63.352 90.8842 63.3624C91.7652 63.3727 92.6135 63.5383 93.4212 63.859C94.2367 64.1798 94.9503 64.6267 95.5695 65.2069C96.1811 65.7799 96.6602 66.4434 96.9837 67.1969C97.315 67.9435 97.4759 68.7234 97.4664 69.5296Z" fill="#D4D2D3"/>
<path d="M20.0587 103.858C20.0492 104.664 19.8701 105.44 19.5291 106.179C19.1803 106.917 18.6934 107.576 18.0607 108.135C17.4281 108.7 16.7042 109.13 15.8891 109.432C15.0663 109.733 14.2145 109.872 13.3335 109.862C12.4525 109.851 11.6042 109.693 10.7964 109.372C9.98089 109.051 9.26735 108.604 8.65584 108.024C8.03653 107.451 7.56521 106.781 7.23391 106.034C6.9026 105.287 6.74173 104.508 6.7512 103.701C6.76076 102.888 6.93983 102.119 7.28867 101.374C7.63743 100.635 8.12429 99.9829 8.75698 99.4174C9.38195 98.8519 10.1058 98.4218 10.9286 98.1203C11.7436 97.8257 12.5955 97.6801 13.4765 97.6905C14.3575 97.7008 15.2057 97.8664 16.0213 98.1801C16.8291 98.5008 17.5427 98.9478 18.1619 99.528C18.7811 100.108 19.2525 100.771 19.5838 101.518C19.9073 102.272 20.0683 103.044 20.0587 103.858Z" fill="#D4D2D3"/>
<path d="M58.5515 104.311C58.542 105.117 58.3706 105.893 58.0218 106.632C57.6731 107.37 57.1861 108.029 56.5535 108.588C55.9285 109.153 55.2047 109.583 54.3819 109.885C53.5668 110.186 52.715 110.325 51.834 110.315C50.953 110.304 50.1047 110.146 49.2892 109.825C48.4814 109.504 47.7678 109.057 47.1486 108.477C46.5293 107.904 46.058 107.234 45.7267 106.487C45.4031 105.741 45.2422 104.961 45.2517 104.154C45.2612 103.341 45.4403 102.572 45.7814 101.827C46.1302 101.088 46.617 100.436 47.2497 99.8705C47.8824 99.305 48.6063 98.875 49.4214 98.5733C50.2441 98.2789 51.096 98.1333 51.977 98.1436C52.858 98.154 53.7062 98.3195 54.5141 98.6332C55.3296 98.954 56.0431 99.4009 56.6546 99.981C57.2739 100.561 57.7453 101.225 58.0766 101.971C58.4078 102.725 58.561 103.497 58.5515 104.311Z" fill="#D4D2D3"/>
<path d="M97.0524 104.763C97.0429 105.569 96.8637 106.345 96.515 107.084C96.174 107.822 95.6793 108.481 95.0544 109.04C94.4217 109.605 93.6979 110.035 92.875 110.337C92.0599 110.639 91.2081 110.777 90.3271 110.767C89.4462 110.756 88.5978 110.598 87.7901 110.277C86.9745 109.956 86.261 109.51 85.6418 108.929C85.0302 108.356 84.5511 107.686 84.2276 106.939C83.8963 106.193 83.7354 105.413 83.7449 104.607C83.7544 103.793 83.9335 103.024 84.2823 102.279C84.6233 101.54 85.1179 100.888 85.7429 100.323C86.3756 99.7571 87.0995 99.3271 87.9223 99.0256C88.7373 98.731 89.5892 98.5854 90.4702 98.5958C91.3512 98.6061 92.1994 98.7717 93.0073 99.0853C93.8228 99.4061 94.5363 99.853 95.1555 100.433C95.767 101.013 96.2462 101.677 96.5698 102.423C96.901 103.177 97.0619 103.95 97.0524 104.763Z" fill="#D4D2D3"/>
<path d="M19.6449 139.084C19.6354 139.891 19.4563 140.666 19.1152 141.405C18.7664 142.151 18.2795 142.803 17.6468 143.368C17.0142 143.927 16.2903 144.364 15.4753 144.658C14.6525 144.96 13.8006 145.105 12.9196 145.095C12.0386 145.085 11.1904 144.919 10.3826 144.599C9.56699 144.285 8.85353 143.831 8.24194 143.258C7.62271 142.678 7.15131 142.014 6.82009 141.261C6.48878 140.514 6.32791 139.734 6.33738 138.928C6.34686 138.122 6.52601 137.346 6.87477 136.607C7.22361 135.862 7.71047 135.209 8.34316 134.644C8.96805 134.086 9.69198 133.648 10.5147 133.354C11.3298 133.052 12.1817 132.907 13.0627 132.917C13.9437 132.927 14.7919 133.093 15.6074 133.414C16.4153 133.727 17.1288 134.181 17.7481 134.755C18.3673 135.335 18.8387 135.998 19.1699 136.752C19.4935 137.498 19.6544 138.278 19.6449 139.084Z" fill="#D4D2D3"/>
<path d="M58.1377 139.536C58.1282 140.343 57.9568 141.119 57.608 141.857C57.2592 142.603 56.7723 143.255 56.1396 143.82C55.5147 144.379 54.7908 144.816 53.9681 145.11C53.153 145.412 52.3011 145.558 51.4201 145.547C50.5391 145.537 49.6908 145.371 48.8753 145.051C48.0675 144.737 47.354 144.283 46.7347 143.71C46.1155 143.13 45.6441 142.466 45.3128 141.713C44.9893 140.966 44.8284 140.186 44.8379 139.38C44.8473 138.574 45.0265 137.798 45.3675 137.059C45.7164 136.314 46.2032 135.662 46.8359 135.096C47.4685 134.538 48.1925 134.101 49.0075 133.806C49.8303 133.504 50.6822 133.359 51.5632 133.369C52.4442 133.38 53.2924 133.545 54.1002 133.866C54.9158 134.18 55.6292 134.634 56.2408 135.207C56.8601 135.787 57.3315 136.45 57.6627 137.204C57.994 137.95 58.1471 138.73 58.1377 139.536Z" fill="#D4D2D3"/>
<path d="M96.6383 139.989C96.6288 140.795 96.4497 141.571 96.1009 142.309C95.7598 143.055 95.2652 143.707 94.6403 144.273C94.0076 144.831 93.2837 145.268 92.461 145.563C91.6459 145.864 90.794 146.01 89.913 145.999C89.032 145.989 88.1838 145.824 87.376 145.503C86.5604 145.189 85.8469 144.735 85.2276 144.162C84.6161 143.582 84.137 142.918 83.8135 142.165C83.4822 141.418 83.3213 140.638 83.3308 139.832C83.3403 139.026 83.5194 138.25 83.8682 137.511C84.2093 136.766 84.7039 136.114 85.3288 135.548C85.9615 134.99 86.6854 134.553 87.5081 134.258C88.3232 133.957 89.1751 133.811 90.0561 133.821C90.9371 133.832 91.7853 133.997 92.5931 134.318C93.4087 134.632 94.1222 135.086 94.7415 135.659C95.353 136.239 95.8321 136.902 96.1556 137.656C96.4869 138.402 96.6478 139.182 96.6383 139.989Z" fill="#D4D2D3"/>
<path d="M19.2307 174.311C19.2211 175.124 19.042 175.893 18.7009 176.638C18.3522 177.377 17.8653 178.029 17.2326 178.595C16.5999 179.16 15.8761 179.59 15.061 179.892C14.2383 180.186 13.3864 180.332 12.5054 180.321C11.6244 180.311 10.7761 180.146 9.96827 179.832C9.15277 179.511 8.43922 179.064 7.82772 178.484C7.20849 177.904 6.73708 177.241 6.40578 176.494C6.07456 175.74 5.9136 174.968 5.92316 174.154C5.93263 173.348 6.11179 172.572 6.46055 171.834C6.80938 171.088 7.29625 170.436 7.92886 169.877C8.55382 169.312 9.27767 168.882 10.1005 168.58C10.9156 168.279 11.7674 168.14 12.6484 168.15C13.5294 168.161 14.3777 168.319 15.1932 168.64C16.001 168.961 16.7145 169.408 17.3338 169.988C17.9531 170.561 18.4245 171.224 18.7557 171.978C19.0793 172.724 19.2401 173.504 19.2307 174.311Z" fill="#D4D2D3"/>
<path d="M57.7234 174.763C57.7139 175.576 57.5425 176.345 57.1937 177.091C56.8449 177.829 56.3581 178.481 55.7254 179.047C55.1004 179.612 54.3766 180.042 53.5537 180.344C52.7387 180.638 51.8868 180.784 51.0059 180.774C50.1249 180.763 49.2766 180.598 48.461 180.284C47.6533 179.963 46.9397 179.516 46.3205 178.936C45.7012 178.356 45.2298 177.693 44.8985 176.946C44.575 176.193 44.4141 175.42 44.4236 174.606C44.4331 173.8 44.6123 173.024 44.9533 172.286C45.3021 171.54 45.789 170.888 46.4216 170.329C47.0543 169.764 47.7782 169.334 48.5933 169.032C49.4161 168.731 50.2679 168.592 51.1489 168.603C52.0299 168.613 52.8782 168.771 53.686 169.092C54.5015 169.413 55.215 169.86 55.8265 170.44C56.4458 171.013 56.9172 171.676 57.2485 172.43C57.5798 173.177 57.7329 173.956 57.7234 174.763Z" fill="#D4D2D3"/>
<path d="M96.2246 175.215C96.215 176.028 96.0359 176.797 95.6871 177.543C95.3461 178.281 94.8515 178.933 94.2265 179.499C93.5938 180.064 92.87 180.494 92.0472 180.796C91.2321 181.091 90.3802 181.236 89.4993 181.226C88.6183 181.215 87.77 181.05 86.9622 180.736C86.1467 180.415 85.4331 179.968 84.8139 179.388C84.2024 178.808 83.7233 178.145 83.3997 177.398C83.0685 176.645 82.9075 175.872 82.9171 175.059C82.9265 174.252 83.1057 173.476 83.4544 172.738C83.7956 171.992 84.2901 171.34 84.915 170.782C85.5477 170.216 86.2716 169.786 87.0944 169.485C87.9095 169.183 88.7613 169.044 89.6423 169.055C90.5233 169.065 91.3716 169.224 92.1794 169.544C92.9949 169.865 93.7084 170.312 94.3277 170.892C94.9392 171.465 95.4184 172.129 95.7419 172.882C96.0732 173.629 96.234 174.409 96.2246 175.215Z" fill="#D4D2D3"/>
<path d="M95.8107 210.448C95.8012 211.254 95.622 212.03 95.2733 212.768C94.9322 213.514 94.4376 214.166 93.8127 214.725C93.18 215.29 92.4562 215.72 91.6333 216.022C90.8182 216.323 89.9663 216.469 89.0854 216.458C88.2044 216.448 87.3561 216.282 86.5484 215.962C85.7328 215.641 85.0193 215.194 84.4001 214.614C83.7885 214.041 83.3093 213.377 82.9859 212.624C82.6546 211.877 82.4937 211.097 82.5032 210.291C82.5126 209.485 82.6918 208.709 83.0406 207.963C83.3816 207.225 83.8762 206.573 84.5012 206.007C85.1339 205.442 85.8578 205.012 86.6806 204.71C87.4956 204.416 88.3475 204.27 89.2285 204.28C90.1095 204.291 90.9577 204.456 91.7656 204.77C92.5811 205.091 93.2946 205.538 93.9138 206.118C94.5253 206.698 95.0045 207.361 95.3281 208.108C95.6593 208.861 95.8201 209.641 95.8107 210.448Z" fill="#D4D2D3"/>
</g>
<defs>
<clipPath id="clip0_549_4146">
<rect width="115.356" height="104.37" fill="white" transform="matrix(0.999943 0.010627 -0.0129919 0.999916 1.35596 197.16)"/>
</clipPath>
<clipPath id="clip1_549_4146">
<rect width="102.538" height="207.941" fill="white" transform="matrix(0.999943 0.0106621 -0.0129491 0.999916 2.70166 0)"/>
</clipPath>
</defs>
</svg>
