<svg width="31" height="30" viewBox="0 0 31 30" fill="none" xmlns="http://www.w3.org/2000/svg">
<g clip-path="url(#clip0_634_1303)">
<path d="M28.0938 30H2.90625C1.29813 30 0 28.7437 0 27.1875V4.6875C0 3.13125 1.29813 1.875 2.90625 1.875H28.0938C29.7019 1.875 31 3.13125 31 4.6875V27.1875C31 28.7437 29.7019 30 28.0938 30ZM2.90625 3.75C2.36375 3.75 1.9375 4.1625 1.9375 4.6875V27.1875C1.9375 27.7125 2.36375 28.125 2.90625 28.125H28.0938C28.6363 28.125 29.0625 27.7125 29.0625 27.1875V4.6875C29.0625 4.1625 28.6363 3.75 28.0938 3.75H2.90625Z" fill="black" fill-opacity="0.5"/>
<path d="M8.71889 7.5C8.17639 7.5 7.75014 7.0875 7.75014 6.5625V0.9375C7.75014 0.4125 8.17639 0 8.71889 0C9.26139 0 9.68764 0.4125 9.68764 0.9375V6.5625C9.68764 7.0875 9.26139 7.5 8.71889 7.5ZM22.2814 7.5C21.7389 7.5 21.3126 7.0875 21.3126 6.5625V0.9375C21.3126 0.4125 21.7389 0 22.2814 0C22.8239 0 23.2501 0.4125 23.2501 0.9375V6.5625C23.2501 7.0875 22.8239 7.5 22.2814 7.5ZM29.0625 11.25H1.9375C1.9375 11.25 1.9375 11.15 1.9375 10.625C1.9375 10.1 1.93769 9.375 1.93769 9.375H29.0625C29.0625 9.375 29.0625 9.475 29.0625 10C29.0625 10.525 29.0625 11.25 29.0625 11.25Z" fill="black" fill-opacity="0.5"/>
<path d="M15.9306 12.6375C15.8064 12.5483 15.6553 12.5 15.5001 12.5C15.3448 12.5 15.1937 12.5483 15.0695 12.6375C14.7706 12.857 14.4949 13.1041 14.2464 13.3753C13.8711 13.7803 13.3473 14.4632 13.3473 15.2505C13.3473 15.7976 13.5741 16.3223 13.9778 16.7091C14.3816 17.096 14.9291 17.3133 15.5001 17.3133H11.1945C10.6236 17.3133 10.076 17.5307 9.67228 17.9175C9.26856 18.3044 9.04175 18.8291 9.04175 19.3762V20.7514C9.04175 21.6013 10.0543 22.0868 10.764 21.5766L11.2426 21.2328C11.3668 21.1435 11.5179 21.0952 11.6732 21.0952C11.8284 21.0952 11.9795 21.1435 12.1037 21.2328L12.2946 21.3703C12.6672 21.6381 13.1205 21.7828 13.5863 21.7828C14.0521 21.7828 14.5053 21.6381 14.8779 21.3703L15.0695 21.2328C15.1937 21.1435 15.3448 21.0952 15.5001 21.0952C15.6553 21.0952 15.8064 21.1435 15.9306 21.2328L16.1222 21.3703C16.4949 21.6381 16.9481 21.7828 17.4139 21.7828C17.8797 21.7828 18.3329 21.6381 18.7056 21.3703L18.8964 21.2328C19.0207 21.1435 19.1717 21.0952 19.327 21.0952C19.4823 21.0952 19.6333 21.1435 19.7576 21.2328L20.2362 21.5766C20.9459 22.0868 21.9584 21.6013 21.9584 20.7514V19.3762C21.9584 18.8291 21.7316 18.3044 21.3279 17.9175C20.9242 17.5307 20.3766 17.3133 19.8056 17.3133H15.5001C16.071 17.3133 16.6186 17.096 17.0223 16.7091C17.426 16.3223 17.6529 15.7976 17.6529 15.2505C17.6529 14.4632 17.129 13.7803 16.7537 13.3753C16.5054 13.1072 16.2299 12.8527 15.9306 12.6375ZM9.75934 23.0996V24.8771C9.75934 25.2419 9.91055 25.5917 10.1797 25.8496C10.4488 26.1075 10.8139 26.2524 11.1945 26.2524H19.8056C20.1863 26.2524 20.5513 26.1075 20.8205 25.8496C21.0896 25.5917 21.2408 25.2419 21.2408 24.8771V23.0996C21.0738 23.1574 20.8944 23.1742 20.7189 23.1484C20.5433 23.1225 20.3774 23.055 20.2362 22.9518L19.7576 22.608C19.6333 22.5187 19.4823 22.4705 19.327 22.4705C19.1717 22.4705 19.0207 22.5187 18.8964 22.608L18.7056 22.7455C18.3329 23.0133 17.8797 23.1581 17.4139 23.1581C16.9481 23.1581 16.4949 23.0133 16.1222 22.7455L15.9306 22.608C15.8064 22.5187 15.6553 22.4705 15.5001 22.4705C15.3448 22.4705 15.1937 22.5187 15.0695 22.608L14.8779 22.7455C14.5053 23.0133 14.0521 23.1581 13.5863 23.1581C13.1205 23.1581 12.6672 23.0133 12.2946 22.7455L12.1037 22.608C11.9795 22.5187 11.8284 22.4705 11.6732 22.4705C11.5179 22.4705 11.3668 22.5187 11.2426 22.608L10.764 22.9518C10.6228 23.055 10.4568 23.1225 10.2813 23.1484C10.1058 23.1742 9.92634 23.1574 9.75934 23.0996Z" fill="black" fill-opacity="0.5"/>
</g>
<defs>
<clipPath id="clip0_634_1303">
<rect width="31" height="30" fill="white"/>
</clipPath>
</defs>
</svg>
