<svg width="87" height="87" viewBox="0 0 87 87" fill="none" xmlns="http://www.w3.org/2000/svg">
<path d="M42.7752 39.5125C34.5464 37.3737 31.9002 35.1625 31.9002 31.7188C31.9002 27.7675 35.5614 25.0125 41.6877 25.0125C48.1402 25.0125 50.5327 28.0938 50.7502 32.625H58.7614C58.5077 26.39 54.7014 20.6625 47.1252 18.8138V10.875H36.2502V18.705C29.2177 20.2275 23.5627 24.795 23.5627 31.7913C23.5627 40.165 30.4864 44.3337 40.6002 46.7625C49.6627 48.9375 51.4752 52.1275 51.4752 55.4988C51.4752 58 49.6989 61.9875 41.6877 61.9875C34.2202 61.9875 31.2839 58.6525 30.8852 54.375H22.9102C23.3452 62.3138 29.2902 66.7725 36.2502 68.2588V76.125H47.1252V68.3313C54.1939 66.99 59.8127 62.8937 59.8127 55.4625C59.8127 45.1675 51.0039 41.6512 42.7752 39.5125Z" fill="white"/>
</svg>
