<svg width="40" height="40" viewBox="0 0 40 40" fill="none" xmlns="http://www.w3.org/2000/svg">
<path d="M21.8388 13.7798L12.0236 24.0198C11.7317 24.3242 11.5418 24.7188 11.4821 25.1448L10.9521 28.9188L14.5699 28.3658C14.9783 28.3032 15.3564 28.1047 15.648 27.7998L25.4613 17.5598M21.8388 13.7798L23.9749 11.5498C24.1173 11.4012 24.2864 11.2833 24.4724 11.2029C24.6585 11.1225 24.8579 11.0811 25.0593 11.0811C25.2607 11.0811 25.4601 11.1225 25.6462 11.2029C25.8322 11.2833 26.0013 11.4012 26.1436 11.5498L27.5984 13.0678C27.7408 13.2164 27.8538 13.3928 27.9309 13.5869C28.008 13.7811 28.0476 13.9892 28.0476 14.1993C28.0476 14.4095 28.008 14.6175 27.9309 14.8117C27.8538 15.0058 27.7408 15.1822 27.5984 15.3308L25.4613 17.5598M21.8388 13.7798L25.4613 17.5598" stroke="#1E1E1E" stroke-width="1.5" stroke-linecap="round" stroke-linejoin="round"/>
</svg>
