<svg width="1025" height="730" viewBox="0 0 1025 730" fill="none" xmlns="http://www.w3.org/2000/svg">
<g filter="url(#filter0_d_766_1308)">
<rect width="1017" height="722" fill="white"/>
</g>
<rect x="64" y="34" width="885" height="99" fill="#095B9D"/>
<rect x="72" y="673" width="452" height="102" transform="rotate(-90 72 673)" fill="#1D3950"/>
<rect x="261" y="673" width="452" height="102" transform="rotate(-90 261 673)" fill="#4290D0"/>
<rect x="450" y="673" width="452" height="102" transform="rotate(-90 450 673)" fill="#738B9E"/>
<rect x="639" y="673" width="315" height="102" transform="rotate(-90 639 673)" fill="#6BBDFF"/>
<path d="M702 632.443H678.727V624.148C678.727 622.337 679.057 620.837 679.716 619.648C680.375 618.458 681.277 617.568 682.42 616.977C683.557 616.386 684.837 616.091 686.261 616.091C687.693 616.091 688.981 616.39 690.125 616.989C691.261 617.58 692.163 618.473 692.83 619.67C693.489 620.86 693.818 622.356 693.818 624.159V629.864H690.841V624.477C690.841 623.333 690.644 622.405 690.25 621.693C689.848 620.981 689.303 620.458 688.614 620.125C687.924 619.792 687.14 619.625 686.261 619.625C685.383 619.625 684.602 619.792 683.92 620.125C683.239 620.458 682.705 620.985 682.318 621.705C681.932 622.417 681.739 623.356 681.739 624.523V628.932H702V632.443ZM702 611.974H678.727V603.679C678.727 601.876 679.038 600.38 679.659 599.19C680.28 597.993 681.14 597.099 682.239 596.509C683.33 595.918 684.591 595.622 686.023 595.622C687.447 595.622 688.701 595.921 689.784 596.52C690.86 597.111 691.697 598.005 692.295 599.202C692.894 600.391 693.193 601.887 693.193 603.69V609.974H690.17V604.009C690.17 602.872 690.008 601.948 689.682 601.236C689.356 600.516 688.883 599.99 688.261 599.656C687.64 599.323 686.894 599.156 686.023 599.156C685.144 599.156 684.383 599.327 683.739 599.668C683.095 600.001 682.602 600.527 682.261 601.247C681.913 601.959 681.739 602.895 681.739 604.054V608.463H702V611.974ZM691.5 600.486L702 594.736V598.736L691.5 604.372V600.486ZM702 589.384V593.111L678.727 584.736V580.679L702 572.304V576.031L682.955 582.611V582.793L702 589.384ZM692.886 588.759V576.668H695.841V588.759H692.886ZM681.75 572.841H678.727V554.83H681.75V562.091H702V565.591H681.75V572.841ZM702 550.849H678.727V536.259H681.75V547.338H688.841V537.02H691.852V547.338H698.977V536.122H702V550.849ZM702 531.568H678.727V528.057H698.977V517.511H702V531.568ZM702 513.506H678.727V498.915H681.75V509.994H688.841V499.676H691.852V509.994H698.977V498.778H702V513.506ZM678.727 490.713H702V494.224H678.727V490.713ZM702 485.599H678.727V477.304C678.727 475.501 679.038 474.005 679.659 472.815C680.28 471.618 681.14 470.724 682.239 470.134C683.33 469.543 684.591 469.247 686.023 469.247C687.447 469.247 688.701 469.546 689.784 470.145C690.86 470.736 691.697 471.63 692.295 472.827C692.894 474.016 693.193 475.512 693.193 477.315V483.599H690.17V477.634C690.17 476.497 690.008 475.573 689.682 474.861C689.356 474.141 688.883 473.615 688.261 473.281C687.64 472.948 686.894 472.781 686.023 472.781C685.144 472.781 684.383 472.952 683.739 473.293C683.095 473.626 682.602 474.152 682.261 474.872C681.913 475.584 681.739 476.52 681.739 477.679V482.088H702V485.599ZM691.5 474.111L702 468.361V472.361L691.5 477.997V474.111ZM702 463.009V466.736L678.727 458.361V454.304L702 445.929V449.656L682.955 456.236V456.418L702 463.009ZM692.886 462.384V450.293H695.841V462.384H692.886ZM702.386 426.315C702.379 428.111 701.905 429.645 700.966 430.918C700.027 432.19 698.659 433.164 696.864 433.838C695.068 434.512 692.905 434.849 690.375 434.849C687.852 434.849 685.697 434.512 683.909 433.838C682.121 433.156 680.758 432.179 679.818 430.906C678.879 429.626 678.409 428.096 678.409 426.315C678.409 424.535 678.883 423.009 679.83 421.736C680.769 420.463 682.133 419.49 683.92 418.815C685.701 418.134 687.852 417.793 690.375 417.793C692.913 417.793 695.08 418.13 696.875 418.804C698.663 419.478 700.03 420.452 700.977 421.724C701.917 422.997 702.386 424.527 702.386 426.315ZM699.352 426.315C699.352 424.74 698.583 423.509 697.045 422.622C695.508 421.728 693.284 421.281 690.375 421.281C688.443 421.281 686.811 421.486 685.477 421.895C684.136 422.296 683.121 422.876 682.432 423.634C681.735 424.384 681.386 425.277 681.386 426.315C681.386 427.884 682.159 429.115 683.705 430.009C685.25 430.902 687.473 431.353 690.375 431.361C692.314 431.361 693.955 431.16 695.295 430.759C696.629 430.349 697.64 429.77 698.33 429.02C699.011 428.27 699.352 427.368 699.352 426.315ZM678.727 404.932H702V408.455H682.25V408.591L685.886 414.159H682.523L678.727 408.352V404.932Z" fill="white"/>
<path d="M513 555.443H489.727V547.148C489.727 545.337 490.057 543.837 490.716 542.648C491.375 541.458 492.277 540.568 493.42 539.977C494.557 539.386 495.837 539.091 497.261 539.091C498.693 539.091 499.981 539.39 501.125 539.989C502.261 540.58 503.163 541.473 503.83 542.67C504.489 543.86 504.818 545.356 504.818 547.159V552.864H501.841V547.477C501.841 546.333 501.644 545.405 501.25 544.693C500.848 543.981 500.303 543.458 499.614 543.125C498.924 542.792 498.14 542.625 497.261 542.625C496.383 542.625 495.602 542.792 494.92 543.125C494.239 543.458 493.705 543.985 493.318 544.705C492.932 545.417 492.739 546.356 492.739 547.523V551.932H513V555.443ZM513 534.974H489.727V526.679C489.727 524.876 490.038 523.38 490.659 522.19C491.28 520.993 492.14 520.099 493.239 519.509C494.33 518.918 495.591 518.622 497.023 518.622C498.447 518.622 499.701 518.921 500.784 519.52C501.86 520.111 502.697 521.005 503.295 522.202C503.894 523.391 504.193 524.887 504.193 526.69V532.974H501.17V527.009C501.17 525.872 501.008 524.948 500.682 524.236C500.356 523.516 499.883 522.99 499.261 522.656C498.64 522.323 497.894 522.156 497.023 522.156C496.144 522.156 495.383 522.327 494.739 522.668C494.095 523.001 493.602 523.527 493.261 524.247C492.913 524.959 492.739 525.895 492.739 527.054V531.463H513V534.974ZM502.5 523.486L513 517.736V521.736L502.5 527.372V523.486ZM513 512.384V516.111L489.727 507.736V503.679L513 495.304V499.031L493.955 505.611V505.793L513 512.384ZM503.886 511.759V499.668H506.841V511.759H503.886ZM492.75 495.841H489.727V477.83H492.75V485.091H513V488.591H492.75V495.841ZM513 473.849H489.727V459.259H492.75V470.338H499.841V460.02H502.852V470.338H509.977V459.122H513V473.849ZM513 454.568H489.727V451.057H509.977V440.511H513V454.568ZM513 436.506H489.727V421.915H492.75V432.994H499.841V422.676H502.852V432.994H509.977V421.778H513V436.506ZM489.727 413.713H513V417.224H489.727V413.713ZM513 408.599H489.727V400.304C489.727 398.501 490.038 397.005 490.659 395.815C491.28 394.618 492.14 393.724 493.239 393.134C494.33 392.543 495.591 392.247 497.023 392.247C498.447 392.247 499.701 392.546 500.784 393.145C501.86 393.736 502.697 394.63 503.295 395.827C503.894 397.016 504.193 398.512 504.193 400.315V406.599H501.17V400.634C501.17 399.497 501.008 398.573 500.682 397.861C500.356 397.141 499.883 396.615 499.261 396.281C498.64 395.948 497.894 395.781 497.023 395.781C496.144 395.781 495.383 395.952 494.739 396.293C494.095 396.626 493.602 397.152 493.261 397.872C492.913 398.584 492.739 399.52 492.739 400.679V405.088H513V408.599ZM502.5 397.111L513 391.361V395.361L502.5 400.997V397.111ZM513 386.009V389.736L489.727 381.361V377.304L513 368.929V372.656L493.955 379.236V379.418L513 386.009ZM503.886 385.384V373.293H506.841V385.384H503.886ZM513.386 349.315C513.379 351.111 512.905 352.645 511.966 353.918C511.027 355.19 509.659 356.164 507.864 356.838C506.068 357.512 503.905 357.849 501.375 357.849C498.852 357.849 496.697 357.512 494.909 356.838C493.121 356.156 491.758 355.179 490.818 353.906C489.879 352.626 489.409 351.096 489.409 349.315C489.409 347.535 489.883 346.009 490.83 344.736C491.769 343.463 493.133 342.49 494.92 341.815C496.701 341.134 498.852 340.793 501.375 340.793C503.913 340.793 506.08 341.13 507.875 341.804C509.663 342.478 511.03 343.452 511.977 344.724C512.917 345.997 513.386 347.527 513.386 349.315ZM510.352 349.315C510.352 347.74 509.583 346.509 508.045 345.622C506.508 344.728 504.284 344.281 501.375 344.281C499.443 344.281 497.811 344.486 496.477 344.895C495.136 345.296 494.121 345.876 493.432 346.634C492.735 347.384 492.386 348.277 492.386 349.315C492.386 350.884 493.159 352.115 494.705 353.009C496.25 353.902 498.473 354.353 501.375 354.361C503.314 354.361 504.955 354.16 506.295 353.759C507.629 353.349 508.64 352.77 509.33 352.02C510.011 351.27 510.352 350.368 510.352 349.315ZM513 336.761H510.455L502.295 328.886C501.409 328.045 500.633 327.352 499.966 326.807C499.292 326.254 498.652 325.841 498.045 325.568C497.439 325.295 496.795 325.159 496.114 325.159C495.341 325.159 494.674 325.341 494.114 325.705C493.545 326.068 493.11 326.564 492.807 327.193C492.496 327.822 492.341 328.53 492.341 329.318C492.341 330.152 492.511 330.879 492.852 331.5C493.193 332.121 493.674 332.598 494.295 332.932C494.917 333.265 495.644 333.432 496.477 333.432V336.784C495.061 336.784 493.822 336.458 492.761 335.807C491.701 335.155 490.879 334.261 490.295 333.125C489.705 331.989 489.409 330.697 489.409 329.25C489.409 327.788 489.701 326.5 490.284 325.386C490.86 324.265 491.648 323.39 492.648 322.761C493.64 322.133 494.761 321.818 496.011 321.818C496.875 321.818 497.72 321.981 498.545 322.307C499.371 322.625 500.292 323.182 501.307 323.977C502.314 324.773 503.538 325.879 504.977 327.295L509.818 331.92H509.989V321.443H513V336.761Z" fill="white"/>
<path d="M324 555.443H300.727V547.148C300.727 545.337 301.057 543.837 301.716 542.648C302.375 541.458 303.277 540.568 304.42 539.977C305.557 539.386 306.837 539.091 308.261 539.091C309.693 539.091 310.981 539.39 312.125 539.989C313.261 540.58 314.163 541.473 314.83 542.67C315.489 543.86 315.818 545.356 315.818 547.159V552.864H312.841V547.477C312.841 546.333 312.644 545.405 312.25 544.693C311.848 543.981 311.303 543.458 310.614 543.125C309.924 542.792 309.14 542.625 308.261 542.625C307.383 542.625 306.602 542.792 305.92 543.125C305.239 543.458 304.705 543.985 304.318 544.705C303.932 545.417 303.739 546.356 303.739 547.523V551.932H324V555.443ZM324 534.974H300.727V526.679C300.727 524.876 301.038 523.38 301.659 522.19C302.28 520.993 303.14 520.099 304.239 519.509C305.33 518.918 306.591 518.622 308.023 518.622C309.447 518.622 310.701 518.921 311.784 519.52C312.86 520.111 313.697 521.005 314.295 522.202C314.894 523.391 315.193 524.887 315.193 526.69V532.974H312.17V527.009C312.17 525.872 312.008 524.948 311.682 524.236C311.356 523.516 310.883 522.99 310.261 522.656C309.64 522.323 308.894 522.156 308.023 522.156C307.144 522.156 306.383 522.327 305.739 522.668C305.095 523.001 304.602 523.527 304.261 524.247C303.913 524.959 303.739 525.895 303.739 527.054V531.463H324V534.974ZM313.5 523.486L324 517.736V521.736L313.5 527.372V523.486ZM324 512.384V516.111L300.727 507.736V503.679L324 495.304V499.031L304.955 505.611V505.793L324 512.384ZM314.886 511.759V499.668H317.841V511.759H314.886ZM303.75 495.841H300.727V477.83H303.75V485.091H324V488.591H303.75V495.841ZM324 473.849H300.727V459.259H303.75V470.338H310.841V460.02H313.852V470.338H320.977V459.122H324V473.849ZM324 454.568H300.727V451.057H320.977V440.511H324V454.568ZM324 436.506H300.727V421.915H303.75V432.994H310.841V422.676H313.852V432.994H320.977V421.778H324V436.506ZM300.727 413.713H324V417.224H300.727V413.713ZM324 408.599H300.727V400.304C300.727 398.501 301.038 397.005 301.659 395.815C302.28 394.618 303.14 393.724 304.239 393.134C305.33 392.543 306.591 392.247 308.023 392.247C309.447 392.247 310.701 392.546 311.784 393.145C312.86 393.736 313.697 394.63 314.295 395.827C314.894 397.016 315.193 398.512 315.193 400.315V406.599H312.17V400.634C312.17 399.497 312.008 398.573 311.682 397.861C311.356 397.141 310.883 396.615 310.261 396.281C309.64 395.948 308.894 395.781 308.023 395.781C307.144 395.781 306.383 395.952 305.739 396.293C305.095 396.626 304.602 397.152 304.261 397.872C303.913 398.584 303.739 399.52 303.739 400.679V405.088H324V408.599ZM313.5 397.111L324 391.361V395.361L313.5 400.997V397.111ZM324 386.009V389.736L300.727 381.361V377.304L324 368.929V372.656L304.955 379.236V379.418L324 386.009ZM314.886 385.384V373.293H317.841V385.384H314.886ZM324.386 349.315C324.379 351.111 323.905 352.645 322.966 353.918C322.027 355.19 320.659 356.164 318.864 356.838C317.068 357.512 314.905 357.849 312.375 357.849C309.852 357.849 307.697 357.512 305.909 356.838C304.121 356.156 302.758 355.179 301.818 353.906C300.879 352.626 300.409 351.096 300.409 349.315C300.409 347.535 300.883 346.009 301.83 344.736C302.769 343.463 304.133 342.49 305.92 341.815C307.701 341.134 309.852 340.793 312.375 340.793C314.913 340.793 317.08 341.13 318.875 341.804C320.663 342.478 322.03 343.452 322.977 344.724C323.917 345.997 324.386 347.527 324.386 349.315ZM321.352 349.315C321.352 347.74 320.583 346.509 319.045 345.622C317.508 344.728 315.284 344.281 312.375 344.281C310.443 344.281 308.811 344.486 307.477 344.895C306.136 345.296 305.121 345.876 304.432 346.634C303.735 347.384 303.386 348.277 303.386 349.315C303.386 350.884 304.159 352.115 305.705 353.009C307.25 353.902 309.473 354.353 312.375 354.361C314.314 354.361 315.955 354.16 317.295 353.759C318.629 353.349 319.64 352.77 320.33 352.02C321.011 351.27 321.352 350.368 321.352 349.315ZM324.318 328.659C324.318 330.22 324.049 331.614 323.511 332.841C322.973 334.061 322.227 335.027 321.273 335.739C320.311 336.443 319.197 336.822 317.932 336.875V333.307C318.621 333.261 319.22 333.03 319.727 332.614C320.227 332.189 320.614 331.636 320.886 330.955C321.159 330.273 321.295 329.515 321.295 328.682C321.295 327.765 321.136 326.955 320.818 326.25C320.5 325.538 320.057 324.981 319.489 324.58C318.913 324.178 318.25 323.977 317.5 323.977C316.72 323.977 316.034 324.178 315.443 324.58C314.845 324.973 314.375 325.553 314.034 326.318C313.693 327.076 313.523 327.992 313.523 329.068V331.034H310.659V329.068C310.659 328.205 310.504 327.447 310.193 326.795C309.883 326.136 309.451 325.621 308.898 325.25C308.337 324.879 307.682 324.693 306.932 324.693C306.212 324.693 305.587 324.856 305.057 325.182C304.519 325.5 304.098 325.955 303.795 326.545C303.492 327.129 303.341 327.818 303.341 328.614C303.341 329.371 303.481 330.08 303.761 330.739C304.034 331.39 304.428 331.92 304.943 332.33C305.451 332.739 306.061 332.958 306.773 332.989V336.386C305.515 336.348 304.409 335.977 303.455 335.273C302.5 334.561 301.754 333.621 301.216 332.455C300.678 331.288 300.409 329.992 300.409 328.568C300.409 327.076 300.701 325.788 301.284 324.705C301.86 323.614 302.629 322.773 303.591 322.182C304.553 321.583 305.606 321.288 306.75 321.295C308.053 321.288 309.159 321.652 310.068 322.386C310.977 323.114 311.587 324.083 311.898 325.295H312.08C312.314 323.75 312.928 322.553 313.92 321.705C314.913 320.848 316.144 320.424 317.614 320.432C318.894 320.424 320.042 320.78 321.057 321.5C322.072 322.212 322.871 323.186 323.455 324.42C324.03 325.655 324.318 327.068 324.318 328.659Z" fill="white"/>
<path d="M135 559.443H111.727V551.148C111.727 549.337 112.057 547.837 112.716 546.648C113.375 545.458 114.277 544.568 115.42 543.977C116.557 543.386 117.837 543.091 119.261 543.091C120.693 543.091 121.981 543.39 123.125 543.989C124.261 544.58 125.163 545.473 125.83 546.67C126.489 547.86 126.818 549.356 126.818 551.159V556.864H123.841V551.477C123.841 550.333 123.644 549.405 123.25 548.693C122.848 547.981 122.303 547.458 121.614 547.125C120.924 546.792 120.14 546.625 119.261 546.625C118.383 546.625 117.602 546.792 116.92 547.125C116.239 547.458 115.705 547.985 115.318 548.705C114.932 549.417 114.739 550.356 114.739 551.523V555.932H135V559.443ZM135 538.974H111.727V530.679C111.727 528.876 112.038 527.38 112.659 526.19C113.28 524.993 114.14 524.099 115.239 523.509C116.33 522.918 117.591 522.622 119.023 522.622C120.447 522.622 121.701 522.921 122.784 523.52C123.86 524.111 124.697 525.005 125.295 526.202C125.894 527.391 126.193 528.887 126.193 530.69V536.974H123.17V531.009C123.17 529.872 123.008 528.948 122.682 528.236C122.356 527.516 121.883 526.99 121.261 526.656C120.64 526.323 119.894 526.156 119.023 526.156C118.144 526.156 117.383 526.327 116.739 526.668C116.095 527.001 115.602 527.527 115.261 528.247C114.913 528.959 114.739 529.895 114.739 531.054V535.463H135V538.974ZM124.5 527.486L135 521.736V525.736L124.5 531.372V527.486ZM135 516.384V520.111L111.727 511.736V507.679L135 499.304V503.031L115.955 509.611V509.793L135 516.384ZM125.886 515.759V503.668H128.841V515.759H125.886ZM114.75 499.841H111.727V481.83H114.75V489.091H135V492.591H114.75V499.841ZM135 477.849H111.727V463.259H114.75V474.338H121.841V464.02H124.852V474.338H131.977V463.122H135V477.849ZM135 458.568H111.727V455.057H131.977V444.511H135V458.568ZM135 440.506H111.727L111.727 425.915H114.75L114.75 436.994H121.841V426.676H124.852V436.994H131.977V425.778H135V440.506ZM111.727 417.713H135V421.224H111.727V417.713ZM135 412.599H111.727V404.304C111.727 402.501 112.038 401.005 112.659 399.815C113.28 398.618 114.14 397.724 115.239 397.134C116.33 396.543 117.591 396.247 119.023 396.247C120.447 396.247 121.701 396.546 122.784 397.145C123.86 397.736 124.697 398.63 125.295 399.827C125.894 401.016 126.193 402.512 126.193 404.315V410.599H123.17V404.634C123.17 403.497 123.008 402.573 122.682 401.861C122.356 401.141 121.883 400.615 121.261 400.281C120.64 399.948 119.894 399.781 119.023 399.781C118.144 399.781 117.383 399.952 116.739 400.293C116.095 400.626 115.602 401.152 115.261 401.872C114.913 402.584 114.739 403.52 114.739 404.679V409.088H135V412.599ZM124.5 401.111L135 395.361V399.361L124.5 404.997V401.111ZM135 390.009V393.736L111.727 385.361V381.304L135 372.929V376.656L115.955 383.236V383.418L135 390.009ZM125.886 389.384V377.293H128.841V389.384H125.886ZM135.386 353.315C135.379 355.111 134.905 356.645 133.966 357.918C133.027 359.19 131.659 360.164 129.864 360.838C128.068 361.512 125.905 361.849 123.375 361.849C120.852 361.849 118.697 361.512 116.909 360.838C115.121 360.156 113.758 359.179 112.818 357.906C111.879 356.626 111.409 355.096 111.409 353.315C111.409 351.535 111.883 350.009 112.83 348.736C113.769 347.463 115.133 346.49 116.92 345.815C118.701 345.134 120.852 344.793 123.375 344.793C125.913 344.793 128.08 345.13 129.875 345.804C131.663 346.478 133.03 347.452 133.977 348.724C134.917 349.997 135.386 351.527 135.386 353.315ZM132.352 353.315C132.352 351.74 131.583 350.509 130.045 349.622C128.508 348.728 126.284 348.281 123.375 348.281C121.443 348.281 119.811 348.486 118.477 348.895C117.136 349.296 116.121 349.876 115.432 350.634C114.735 351.384 114.386 352.277 114.386 353.315C114.386 354.884 115.159 356.115 116.705 357.009C118.25 357.902 120.473 358.353 123.375 358.361C125.314 358.361 126.955 358.16 128.295 357.759C129.629 357.349 130.64 356.77 131.33 356.02C132.011 355.27 132.352 354.368 132.352 353.315ZM130.455 341.25H127.614L111.727 331.193V328.955H115.909V330.375L127.295 337.568H127.477V323.784H130.455V341.25ZM135 330.216H129.591L128.295 330.193H111.727V326.864H135V330.216Z" fill="white"/>
<path d="M389.557 95V71.7273H397.852C399.663 71.7273 401.163 72.0568 402.352 72.7159C403.542 73.375 404.432 74.2765 405.023 75.4205C405.614 76.5568 405.909 77.8371 405.909 79.2614C405.909 80.6932 405.61 81.9811 405.011 83.125C404.42 84.2614 403.527 85.1629 402.33 85.8295C401.14 86.4886 399.644 86.8182 397.841 86.8182H392.136V83.8409H397.523C398.667 83.8409 399.595 83.6439 400.307 83.25C401.019 82.8485 401.542 82.303 401.875 81.6136C402.208 80.9242 402.375 80.1402 402.375 79.2614C402.375 78.3826 402.208 77.6023 401.875 76.9205C401.542 76.2386 401.015 75.7045 400.295 75.3182C399.583 74.9318 398.644 74.7386 397.477 74.7386H393.068V95H389.557ZM410.026 95V71.7273H418.321C420.124 71.7273 421.62 72.0379 422.81 72.6591C424.007 73.2803 424.901 74.1402 425.491 75.2386C426.082 76.3295 426.378 77.5909 426.378 79.0227C426.378 80.447 426.079 81.7008 425.48 82.7841C424.889 83.8598 423.995 84.697 422.798 85.2955C421.609 85.8939 420.113 86.1932 418.31 86.1932H412.026V83.1705H417.991C419.128 83.1705 420.052 83.0076 420.764 82.6818C421.484 82.3561 422.01 81.8826 422.344 81.2614C422.677 80.6402 422.844 79.8939 422.844 79.0227C422.844 78.1439 422.673 77.3826 422.332 76.7386C421.999 76.0947 421.473 75.6023 420.753 75.2614C420.041 74.9129 419.105 74.7386 417.946 74.7386H413.537V95H410.026ZM421.514 84.5L427.264 95H423.264L417.628 84.5H421.514ZM432.616 95H428.889L437.264 71.7273H441.321L449.696 95H445.969L439.389 75.9545H439.207L432.616 95ZM433.241 85.8864H445.332V88.8409H433.241V85.8864ZM449.159 74.75V71.7273H467.17V74.75H459.909V95H456.409V74.75H449.159ZM471.151 95V71.7273H485.741V74.75H474.662V81.8409H484.98V84.8523H474.662V91.9773H485.878V95H471.151ZM490.432 95V71.7273H493.943V91.9773H504.489V95H490.432ZM508.494 95V71.7273H523.085V74.75H512.006V81.8409H522.324V84.8523H512.006V91.9773H523.222V95H508.494ZM531.287 71.7273V95H527.776V71.7273H531.287ZM536.401 95V71.7273H544.696C546.499 71.7273 547.995 72.0379 549.185 72.6591C550.382 73.2803 551.276 74.1402 551.866 75.2386C552.457 76.3295 552.753 77.5909 552.753 79.0227C552.753 80.447 552.454 81.7008 551.855 82.7841C551.264 83.8598 550.37 84.697 549.173 85.2955C547.984 85.8939 546.488 86.1932 544.685 86.1932H538.401V83.1705H544.366C545.503 83.1705 546.427 83.0076 547.139 82.6818C547.859 82.3561 548.385 81.8826 548.719 81.2614C549.052 80.6402 549.219 79.8939 549.219 79.0227C549.219 78.1439 549.048 77.3826 548.707 76.7386C548.374 76.0947 547.848 75.6023 547.128 75.2614C546.416 74.9129 545.48 74.7386 544.321 74.7386H539.912V95H536.401ZM547.889 84.5L553.639 95H549.639L544.003 84.5H547.889ZM558.991 95H555.264L563.639 71.7273H567.696L576.071 95H572.344L565.764 75.9545H565.582L558.991 95ZM559.616 85.8864H571.707V88.8409H559.616V85.8864ZM595.685 95.3864C593.889 95.3788 592.355 94.9053 591.082 93.9659C589.81 93.0265 588.836 91.6591 588.162 89.8636C587.488 88.0682 587.151 85.9053 587.151 83.375C587.151 80.8523 587.488 78.697 588.162 76.9091C588.844 75.1212 589.821 73.7576 591.094 72.8182C592.374 71.8788 593.904 71.4091 595.685 71.4091C597.465 71.4091 598.991 71.8826 600.264 72.8295C601.537 73.7689 602.51 75.1326 603.185 76.9205C603.866 78.7008 604.207 80.8523 604.207 83.375C604.207 85.9129 603.87 88.0795 603.196 89.875C602.522 91.6629 601.548 93.0303 600.276 93.9773C599.003 94.9167 597.473 95.3864 595.685 95.3864ZM595.685 92.3523C597.26 92.3523 598.491 91.5833 599.378 90.0455C600.272 88.5076 600.719 86.2841 600.719 83.375C600.719 81.4432 600.514 79.8106 600.105 78.4773C599.704 77.1364 599.124 76.1212 598.366 75.4318C597.616 74.7348 596.723 74.3864 595.685 74.3864C594.116 74.3864 592.885 75.1591 591.991 76.7045C591.098 78.25 590.647 80.4735 590.639 83.375C590.639 85.3144 590.84 86.9545 591.241 88.2955C591.651 89.6288 592.23 90.6402 592.98 91.3295C593.73 92.0114 594.632 92.3523 595.685 92.3523ZM615.92 95.3182C614.496 95.3182 613.216 95.0455 612.08 94.5C610.951 93.947 610.049 93.1894 609.375 92.2273C608.701 91.2652 608.341 90.1667 608.295 88.9318H611.705C611.788 89.9318 612.231 90.7538 613.034 91.3977C613.837 92.0417 614.799 92.3636 615.92 92.3636C616.814 92.3636 617.606 92.1591 618.295 91.75C618.992 91.3333 619.538 90.7614 619.932 90.0341C620.333 89.3068 620.534 88.4773 620.534 87.5455C620.534 86.5985 620.33 85.7538 619.92 85.0114C619.511 84.2689 618.947 83.6856 618.227 83.2614C617.515 82.8371 616.697 82.6212 615.773 82.6136C615.068 82.6136 614.36 82.7348 613.648 82.9773C612.936 83.2197 612.36 83.5379 611.92 83.9318L608.705 83.4545L610.011 71.7273H622.807V74.7386H612.932L612.193 81.25H612.33C612.784 80.8106 613.386 80.4432 614.136 80.1477C614.894 79.8523 615.705 79.7045 616.568 79.7045C617.985 79.7045 619.246 80.0417 620.352 80.7159C621.466 81.3902 622.341 82.3106 622.977 83.4773C623.621 84.6364 623.939 85.9697 623.932 87.4773C623.939 88.9848 623.598 90.3295 622.909 91.5114C622.227 92.6932 621.28 93.625 620.068 94.3068C618.864 94.9811 617.481 95.3182 615.92 95.3182Z" fill="white"/>
<defs>
<filter id="filter0_d_766_1308" x="0" y="0" width="1025" height="730" filterUnits="userSpaceOnUse" color-interpolation-filters="sRGB">
<feFlood flood-opacity="0" result="BackgroundImageFix"/>
<feColorMatrix in="SourceAlpha" type="matrix" values="0 0 0 0 0 0 0 0 0 0 0 0 0 0 0 0 0 0 127 0" result="hardAlpha"/>
<feOffset dx="4" dy="4"/>
<feGaussianBlur stdDeviation="2"/>
<feComposite in2="hardAlpha" operator="out"/>
<feColorMatrix type="matrix" values="0 0 0 0 0 0 0 0 0 0 0 0 0 0 0 0 0 0 0.25 0"/>
<feBlend mode="normal" in2="BackgroundImageFix" result="effect1_dropShadow_766_1308"/>
<feBlend mode="normal" in="SourceGraphic" in2="effect1_dropShadow_766_1308" result="shape"/>
</filter>
</defs>
</svg>
