<svg width="25" height="28" viewBox="0 0 25 28" fill="none" xmlns="http://www.w3.org/2000/svg">
<path d="M8.5625 4.00012C8.33236 3.1987 8.79702 2.66866 9.48319 2.22238C11.6914 0.786196 9.27123 2.22231 10.625 1.60012C11.9788 0.978016 12.7146 1.0001 13.3915 1.0001C14.0684 1.00017 14.0731 0.977914 14.75 1.6001M23.6875 3.40015L1 8.07406M21.4965 19.8317C21.2569 23.1342 21.1364 24.7855 19.9654 25.7922C18.7944 26.7989 16.9939 26.8001 13.3915 26.8001H12.3437C8.74268 26.8001 6.94216 26.8001 5.7698 25.7922C4.59879 24.7855 4.47965 23.1342 4.24004 19.8317L3.6173 11.2457M22.1179 11.2457L21.8472 14.9787M9.48319 14.3566L10.1601 20.5783M16.252 14.3566L15.5752 20.5783" stroke="#EB1313" stroke-width="2" stroke-linecap="round"/>
</svg>
