<svg width="70" height="71" viewBox="0 0 70 71" fill="none" xmlns="http://www.w3.org/2000/svg">
<g clip-path="url(#clip0_461_3926)">
<path d="M70 17.75L34.7375 0L0 17.75V22.1875H4.375V71H13.125V31.0625H56.875V71H65.625V22.1875H70V17.75ZM17.5 26.625V22.1875H26.25V26.625H17.5ZM30.625 26.625V22.1875H39.375V26.625H30.625ZM43.75 26.625V22.1875H52.5V26.625H43.75Z" fill="white"/>
<path d="M26.25 39.9375H21.875V35.5H17.5V48.8125H30.625V35.5H26.25V39.9375ZM26.25 57.6875H21.875V53.25H17.5V66.5625H30.625V53.25H26.25V57.6875ZM43.75 57.6875H39.375V53.25H35V66.5625H48.125V53.25H43.75V57.6875Z" fill="white"/>
</g>
<defs>
<clipPath id="clip0_461_3926">
<rect width="70" height="71" fill="white"/>
</clipPath>
</defs>
</svg>
