<svg width="40" height="40" viewBox="0 0 40 40" fill="none" xmlns="http://www.w3.org/2000/svg">
<g clip-path="url(#clip0_349_3269)">
<path d="M22.8333 9.93343L12.1646 21.0639C11.8474 21.3947 11.641 21.8236 11.576 22.2867L11 26.3889L14.9323 25.7878C15.3762 25.7197 15.7872 25.504 16.1042 25.1726L26.7708 14.0421M22.8333 9.93343L25.1552 7.50952C25.31 7.34798 25.4937 7.21985 25.696 7.13242C25.8982 7.045 26.115 7 26.3339 7C26.5528 7 26.7695 7.045 26.9717 7.13242C27.174 7.21985 27.3577 7.34798 27.5125 7.50952L29.0938 9.15952C29.2486 9.32102 29.3714 9.51276 29.4551 9.72378C29.5389 9.93481 29.582 10.161 29.582 10.3894C29.582 10.6178 29.5389 10.844 29.4551 11.055C29.3714 11.2661 29.2486 11.4578 29.0938 11.6193L26.7708 14.0421M22.8333 9.93343L26.7708 14.0421" stroke="#4E97D1" stroke-width="1.5" stroke-linecap="round" stroke-linejoin="round"/>
</g>
<defs>
<clipPath id="clip0_349_3269">
<rect width="25" height="26.087" fill="white" transform="translate(7 7)"/>
</clipPath>
</defs>
</svg>
