<svg width="40" height="40" viewBox="0 0 40 40" fill="none" xmlns="http://www.w3.org/2000/svg">
<path d="M16.4625 10.0001C16.7208 9.26822 17.1997 8.63443 17.8333 8.18612C18.4668 7.73782 19.2239 7.49707 20 7.49707C20.7761 7.49707 21.5332 7.73782 22.1667 8.18612C22.8003 8.63443 23.2792 9.26822 23.5375 10.0001M30.625 12.5001H10M27.9675 24.2501C27.7463 27.5676 27.635 29.2264 26.5537 30.2376C25.4725 31.2489 23.81 31.2501 20.4838 31.2501H19.5162C16.1912 31.2501 14.5287 31.2501 13.4462 30.2376C12.365 29.2264 12.255 27.5676 12.0337 24.2501L11.4587 15.6251M28.5413 15.6251L28.2912 19.3751M16.875 18.7501L17.5 25.0001M23.125 18.7501L22.5 25.0001" stroke="#160B0B" stroke-width="2" stroke-linecap="round"/>
</svg>
