<svg width="67" height="59" viewBox="0 0 67 59" fill="none" xmlns="http://www.w3.org/2000/svg">
<path d="M5.82233 56.8812C4.22023 56.8812 2.84991 56.3183 1.71139 55.1925C0.572865 54.0667 0.00240195 52.717 0 51.1433V12.393C0 11.7246 0.11169 11.0788 0.335072 10.4555C0.558453 9.83215 0.894727 9.26334 1.34389 8.74903L6.95725 2.10105C7.47847 1.42321 8.1306 0.904173 8.91364 0.543926C9.69667 0.183678 10.5398 0.00237005 11.4429 0H46.067C46.9701 0 47.8216 0.181308 48.6215 0.543926C49.4213 0.904173 50.0879 1.42321 50.6211 2.10105L56.3029 8.88768C56.7521 9.42094 57.0884 10.004 57.3117 10.6368C57.5351 11.2672 57.6468 11.9213 57.6468 12.5992V25.9876C57.152 25.8454 56.6272 25.7435 56.0723 25.6818C55.5175 25.6202 54.9806 25.5894 54.4618 25.5894C51.6011 25.5894 48.8977 26.131 46.3516 27.2141C43.8032 28.2972 41.5633 29.8365 39.6322 31.8321V13.5377H18.0146V37.6696L28.8234 32.3369L36.195 35.9418C35.2534 37.506 34.5172 39.184 33.9864 40.9758C33.4556 42.7699 33.1901 44.6245 33.1901 46.5395C33.1901 48.3834 33.4387 50.1822 33.936 51.9361C34.4356 53.6875 35.1706 55.3359 36.1409 56.8812H5.82233ZM52.5883 59V48.3348H41.7795V44.7797H52.5883V34.1145H56.1912V44.7797H67V48.3348H56.1912V59H52.5883ZM4.97564 9.98265H52.6027L47.8108 4.30875C47.5778 4.08122 47.3112 3.89873 47.011 3.76127C46.7107 3.62381 46.3985 3.55507 46.0742 3.55507H11.5005C11.1787 3.55507 10.8664 3.62381 10.5638 3.76127C10.2611 3.89873 9.99692 4.08122 9.77113 4.30875L4.97564 9.98265Z" fill="white"/>
</svg>
